<svg xmlns="http://www.w3.org/2000/svg" width="596.786" height="558.997" viewBox="0 0 157.9 147.901"><path d="m18.705 244.055.072-4.432 2.05-.078 2.051-.077v-5.534h.789c.661 0 .88.181 1.361 1.125.315.618 1.043 1.868 1.617 2.778l1.043 1.653h2.358c1.297 0 2.357-.068 2.357-.152s-.512-.947-1.139-1.918a69 69 0 0 1-1.771-2.896l-.632-1.13.647-.45c1.214-.849 1.848-1.745 2.279-3.222.818-2.803-.337-5.579-2.839-6.823-1.068-.531-1.579-.586-5.607-.596l-4.431-.01v-2.606c0-1.434-.077-3.516-.171-4.627l-.17-2.021 70.218-.07 70.22-.07 2.094-.595c1.152-.327 2.113-.566 2.136-.529.122.191.841 10.15.746 10.32-.062.108-.864.198-1.783.198h-1.67l-.3 1.124c-.165.618-.71 2.835-1.21 4.925-.501 2.09-.971 3.86-1.045 3.933-.073.074-.21-.207-.304-.625-.094-.417-.68-2.664-1.302-4.992l-1.132-4.233h-4.118l-.755 2.91c-1.114 4.293-1.863 6.747-2.06 6.747-.096 0-.71-2.173-1.362-4.829l-1.187-4.828-2.436-.076c-1.34-.042-2.436-.015-2.436.06 0 .36 3.194 11.286 4.278 14.634l.792 2.447h2.227c1.573 0 2.228-.094 2.228-.321 0-.498 2.427-9.045 2.634-9.277.101-.113.757 1.852 1.457 4.366s1.33 4.72 1.398 4.902c.085.227.795.33 2.278.327l2.155-.003.772-2.576a818 818 0 0 1 1.918-6.263c.63-2.028 1.146-3.863 1.146-4.08 0-.215.067-.325.148-.244.082.082.295 1.441.473 3.021.32 2.848.318 2.883-.341 4.172-.454.888-.696 1.855-.763 3.049-.146 2.57.277 3.786 1.888 5.438 2.518 2.583 6.099 2.962 8.684.92.528-.418 1.034-.686 1.124-.596s.164 1.513.164 3.163v2.998H18.632Zm34.527-5.092c.68-.3 1.599-.825 2.043-1.164l.809-.617v-7.878l-3.77-.073-3.77-.074v3.983h1.75c1.686 0 1.745.022 1.59.596-.087.327-.16.75-.162.94-.006.592-1.85 1.183-3.14 1.006-1.572-.215-2.712-.97-3.452-2.286-.511-.91-.596-1.378-.507-2.788.12-1.877.604-2.757 2.065-3.751 1.235-.84 3.16-.812 4.663.069l1.134.665 1.27-1.359c.699-.747 1.27-1.486 1.27-1.643 0-.451-2.163-1.982-3.247-2.298-1.898-.552-3.593-.602-5.333-.156-7.823 2.004-9.02 13.06-1.81 16.723 2.354 1.196 6.028 1.241 8.597.105m44.779.234c.649-.286 1.406-.724 1.681-.973.883-.799 1.578-2.496 1.592-3.89.027-2.741-1.273-4.014-5.555-5.441-2.625-.875-3.25-1.408-2.747-2.346.559-1.045 2.81-.93 4.714.24.476.293.96.533 1.074.533s.704-.72 1.31-1.598l1.102-1.597-1.241-.787c-1.571-.997-2.615-1.301-5.096-1.485-1.876-.138-2.078-.098-3.69.742-1.835.957-2.544 1.842-2.96 3.695-.615 2.735 1.116 4.939 4.93 6.279 2.753.967 3.04 1.11 3.42 1.714.41.649-.107 1.323-1.234 1.61-1.136.287-3.321-.341-4.63-1.333l-.858-.65-.863.979c-1.281 1.454-1.538 1.875-1.385 2.273.29.757 3.431 2.315 5.418 2.688 1.182.221 3.808-.12 5.018-.653m37.959.013c1.918-.718 3.907-2.541 4.831-4.429.641-1.31.739-1.823.74-3.89.003-2.094-.09-2.57-.763-3.942-1.005-2.045-2.385-3.433-4.297-4.319-1.297-.601-1.92-.72-3.8-.727-2.934-.01-4.967.861-6.868 2.941-3.819 4.178-2.637 11.235 2.335 13.94 2.458 1.338 5.012 1.477 7.822.426m-5.022-4.046c-.966-.438-2.172-1.808-2.403-2.729-.258-1.027.062-3.652.533-4.37.233-.355.911-.92 1.508-1.255 1.444-.812 3.61-.687 4.645.267 1.552 1.43 2.119 4.139 1.249 5.972-.938 1.975-3.598 2.993-5.532 2.115m-92.458-4.339v-8.665l-2.393.085-2.392.086.048 7.455c.027 4.1.104 7.961.171 8.58l.122 1.124h4.442zm23.547 5.358v-3.307h6.085v6.614h4.498v-17.197h-4.498v6.35h-5.771l-.188-2.505c-.103-1.378-.112-2.807-.02-3.175l.168-.67H57.54v17.198h4.498zm20.638.463c0-1.564.079-4.54.174-6.614l.172-3.77h4.416v-3.969h-13.78l.077 2.05.077 2.05 2.183-.043 2.182-.044v13.184h4.498zm28.899-1.797.072-4.64 1.64 2.458a928 928 0 0 0 3.126 4.651l1.486 2.193 2.166-.076 2.166-.077.07-8.599.07-8.599-2.055.047c-1.13.026-2.22.056-2.423.066-.308.016-.337.786-.178 4.678.105 2.562.092 4.595-.028 4.519-.12-.077-1.588-2.224-3.262-4.772l-3.042-4.631-2.182.046-2.182.047-.001 8.665-.001 8.665h4.486zm57.55 6.38c-1.294-.462-1.713-.829-2.331-2.041-.95-1.861-.586-3.814.987-5.303 3.15-2.98 7.932-.18 7.116 4.166-.234 1.247-1.793 2.945-3.017 3.285-1.225.34-1.535.328-2.755-.107m3.906-11.042c-.437-.13-1.806-.207-3.043-.171-2.066.061-2.254.024-2.314-.455-.035-.287-.366-4.076-.734-8.421-.369-4.345-.735-8.572-.815-9.393l-.144-1.493 1.144-.51c.704-.314 2.212-1.584 3.926-3.307 2.136-2.146 3.084-3.339 4.072-5.12.708-1.278 1.312-2.29 1.341-2.25.051.07-.353 5.601-1.291 17.67-.232 2.982-.556 7.21-.72 9.392-.165 2.183-.374 4.042-.464 4.132s-.522.056-.958-.074m-150.151-2.043v-2.147h1.599c1.346 0 1.703.103 2.249.65q.65.648.65 1.546c0 1.332-.74 1.86-2.794 1.99l-1.704.109zm-4.051-18.986c-.094-.094-.174-10.392-.178-22.887l-.008-22.716h12.682l1.759 3.506c3.137 6.252 10.212 19.243 10.481 19.246.303.003 4.678-7.892 9.492-17.13l2.93-5.622h12.401v45.773H56.745l-.037-11.576c-.02-6.366-.044-11.843-.051-12.17-.017-.71-.314-.78-.559-.133-.096.255-2.222 4.3-4.725 8.988l-4.55 8.525-3.349.008-3.349.008-3.836-7.342c-2.11-4.038-4.2-8.057-4.642-8.93l-.805-1.587-.013 12.104-.013 12.105h-5.909c-3.25 0-5.985-.076-6.079-.17zm54.81-22.294c-.021-12.383-.05-22.664-.065-22.846-.02-.254 1.374-.347 5.994-.402l6.02-.07-.067 22.797-.068 22.799-5.887.119-5.887.119zm17.176 22.282c-.063-.118-.134-10.424-.157-22.903l-.042-22.688h10.515l1.502 2.183c.826 1.2 2.69 3.85 4.143 5.887a757 757 0 0 1 4.93 7.011c2.623 3.788 5.985 8.258 6.589 8.76.34.281.401.274.356-.043-.03-.21-.04-5.65-.024-12.09l.032-11.708h11.909l-.068 22.82-.067 22.82-5.327.042-5.327.042-.813-1.1c-2.088-2.828-4.988-6.957-8.426-12-6.487-9.515-7.001-10.254-7.517-10.788-.496-.514-.504-.323-.504 11.642v12.164l-5.795.082c-3.187.045-5.847-.015-5.91-.133m44.777-22.68v-22.91h9.856c10.76 0 12.681.176 16.334 1.498 4.285 1.55 7.565 4.07 9.932 7.627 2.574 3.868 3.691 7.274 4.002 12.199.648 10.286-4.135 18.744-12.652 22.368-4.02 1.71-5.357 1.869-16.955 2.006l-10.517.125zm20.77 10.969c3.13-1.08 5.377-3.492 6.418-6.892.697-2.276.607-6.256-.196-8.723-.658-2.019-2.402-4.658-3.709-5.61-1.517-1.106-3.693-1.614-7.474-1.747l-3.638-.128v23.96l3.506-.157c2.527-.112 3.948-.309 5.093-.703M40.8 170.83l-2.841-5.69v-18.254H27.386l-.07 6.152-.072 6.151h-8.466l-.069-16.205-.068-16.206h8.735v12.171H37.96v-12.171h8.731v42.818l-1.354 3.462c-.745 1.904-1.43 3.462-1.524 3.462s-1.45-2.56-3.012-5.69m18.884-11.662c-3.505-.943-6.759-3.627-8.245-6.804-1.4-2.992-1.574-4.722-1.574-15.687v-9.899h8.703l.08 10.253c.08 10.151.087 10.266.711 11.647.734 1.624 1.762 2.582 3.182 2.964 2.818.759 5.78-1.36 6.485-4.64.095-.446.192-5.178.214-10.517l.04-9.707h8.631v9.899c0 10.929-.176 12.699-1.55 15.637-1.527 3.262-5.01 5.973-8.832 6.874-2.085.492-5.98.482-7.845-.02m25.393-.097-3.814-.146-.023-7.805c-.012-4.293.007-11.526.044-16.074l.066-8.268 4.3.005 4.3.005 2.91 5.709c3.827 7.507 5.404 10.422 5.633 10.412.242-.011 3.51-6.015 6.362-11.688l2.233-4.443h8.654l.068 15.544.069 15.544.76-1.984c.773-2.015 6.601-18.822 8.831-25.466l1.222-3.638h9.3l3.667 10.914c4.05 12.053 7.03 20.604 7.279 20.888.089.102.161-6.982.161-15.742V126.91l3.985-.073 3.984-.073 2.366 3.45c4.054 5.912 5.701 8.252 7.637 10.85l1.872 2.514.132-14.42.133-14.42 1.033-1.719c1.142-1.901 3.378-5.9 5.513-9.854.765-1.418 1.481-2.58 1.59-2.58.2 10.446.156 19.152.133 29.301l-.067 29.303-3.634.074-3.634.073-2.202-2.984a258 258 0 0 1-4.546-6.423 261 261 0 0 0-3.954-5.64l-1.61-2.198-.132 8.549-.132 8.549h-17.365l-1.057-3.247-1.057-3.247-4.918.072-4.918.072-.497 1.852c-.273 1.019-.689 2.479-.924 3.245l-.427 1.392-8.496-.07-8.495-.07-.132-8.396-.133-8.397-3.023 5.883c-1.663 3.236-3.151 5.971-3.307 6.078s-1.328.196-2.603.199l-2.32.004-.538-.86c-.557-.891-4.172-8.208-5.031-10.187-.27-.618-.563-1.124-.654-1.124s-.13 3.78-.088 8.399c.067 7.205.023 8.401-.307 8.414-.212.008-2.101-.051-4.199-.131zm48.865-13.441c-.067-.255-.704-2.534-1.416-5.065l-1.295-4.601-.344 1.162c-.19.639-.768 2.76-1.287 4.714s-1.002 3.71-1.076 3.903c-.106.276.459.35 2.703.35 2.572 0 2.826-.044 2.715-.463" style="fill:#002663;fill-opacity:1;stroke-width:.26458341" transform="translate(-18.568 -100.585)"/><path d="M18.91 244.132v-4.355l2.05-.077 2.05-.077.076-2.712c.042-1.492.19-2.73.33-2.752s.376-.052.522-.066 1.016 1.224 1.933 2.752l1.666 2.778 2.565.075c2.768.082 2.907.001 2.072-1.21-.271-.395-1.096-1.69-1.833-2.879l-1.34-2.162.866-.592c1.497-1.026 2.073-2.15 2.212-4.31.15-2.337-.443-3.95-1.845-5.02-1.643-1.252-2.83-1.497-7.256-1.497H18.91v-8.864l69.784-.032 69.783-.033 2.226-.564c1.224-.31 2.248-.534 2.275-.497.028.038.192 1.675.364 3.64.172 1.964.381 4.191.465 4.948l.152 1.376-1.806.08-1.806.078-1.085 4.498c-.598 2.474-1.143 4.664-1.213 4.867-.109.319-1.637-5.007-2.402-8.373l-.255-1.124H151l-.443 1.786c-1.09 4.402-2.083 7.72-2.273 7.603-.114-.07-.71-2.212-1.324-4.758l-1.118-4.631H143.2c-2.397 0-2.63.043-2.497.463.08.255.617 2.13 1.192 4.167 1.22 4.321 2.736 9.438 3.41 11.51l.472 1.455 2.295.076c2.014.067 2.31.018 2.43-.397.076-.26.63-2.259 1.23-4.442 1.4-5.084 1.342-4.95 1.664-3.836.148.51.758 2.652 1.357 4.762l1.088 3.837 2.254.075 2.254.076.301-.87c.166-.478 1.042-3.31 1.946-6.293s1.67-5.456 1.701-5.496.19 1.088.35 2.507c.287 2.518.278 2.611-.382 3.96-2.489 5.086.747 10.66 6.193 10.668 1.788.003 3.264-.479 4.222-1.379l.599-.562v6.178H18.91Zm34.433-5.003c.822-.39 1.804-.953 2.183-1.251l.69-.543v-8.163h-7.96l.078 2.03.077 2.029 1.058.05c2.396.111 2.29.07 2.2.846-.244 2.109-4.933 1.728-6.295-.512-1.587-2.61-.414-6.132 2.349-7.054 1.529-.51 2.153-.38 4.008.837.67.439.684.432 2.193-1.093l1.518-1.534-.549-.699c-.302-.384-1.315-1.075-2.25-1.535-1.624-.8-1.812-.832-4.157-.713-2.952.15-4.46.739-6.104 2.382a9.25 9.25 0 0 0-2.562 8.188c.627 3.456 2.381 5.694 5.496 7.01 1.32.558 1.82.625 4.02.536 2.042-.083 2.795-.235 4.008-.81m45.291.006c1.722-1.009 2.637-2.514 2.774-4.564.19-2.843-.96-4.164-4.83-5.547-3.129-1.118-3.585-1.35-3.585-1.827 0-1.547 3.348-1.529 5.068.028.252.227.572.371.712.32.374-.137 2.422-2.935 2.422-3.31 0-.396-1.238-1.294-2.528-1.834-1.537-.642-4.738-.91-6.235-.52-3.702.96-5.483 4.493-3.908 7.748.66 1.364 2.212 2.356 5.298 3.388 1.111.372 2.241.92 2.512 1.219.48.53.478.553-.131 1.046-1.175.951-4.183.363-5.772-1.13l-.577-.541-.846.962c-1.28 1.458-1.836 2.2-1.835 2.446 0 .388 2.586 2.003 4.032 2.518 1.063.379 1.955.476 3.786.413 2.05-.07 2.573-.187 3.643-.815m38.107-.049c3.597-1.778 5.716-6.01 4.926-9.836-.835-4.04-3.425-6.66-7.436-7.52-3.68-.789-8.212 1.485-9.92 4.978-1.017 2.078-1.177 5.148-.379 7.265 1.055 2.797 2.89 4.647 5.575 5.62 1.912.694 5.283.458 7.234-.507m-6.185-4.259c-1.702-1.057-2.388-3.237-1.73-5.502.347-1.19.623-1.604 1.415-2.121 2.651-1.73 5.403-.676 6.301 2.412.878 3.019-1.013 5.65-4.047 5.634-.698-.004-1.57-.194-1.939-.423m-92.052-.727c.008-3.074.038-7.019.066-8.765l.051-3.175-2.447-.076-2.448-.076v17.768l2.382-.043 2.38-.044zm23.797 2.348v-3.308h5.54l.075 3.242.074 3.24h4.762V222.16l-2.447-.076-2.447-.076v6.37H62.3v-6.37l-2.447.076-2.447.076-.04 7.56c-.02 4.158.025 8.117.101 8.797l.14 1.238H62.3zm20.638-3.308v-6.614H87.7v-4.498H73.414v4.498h4.498v3.398c0 1.869.078 4.845.173 6.614l.173 3.217h4.68zm28.604 4.035c.015-1.418.03-3.532.034-4.696.005-1.678.067-2.015.302-1.628.163.269 1.583 2.382 3.155 4.696l2.858 4.208h4.47v-17.727h-4.763l-.008 4.564c-.007 3.658-.072 4.475-.33 4.116-.178-.247-1.513-2.299-2.969-4.56l-2.645-4.112-2.382.062-2.38.062-.07 8.465c-.04 4.655-.013 8.614.057 8.797.089.232.815.333 2.385.333h2.257zm56.859 3.677c-1.082-.58-2.12-2.373-2.12-3.663 0-1.894 1.49-3.76 3.476-4.355 2.897-.868 5.832 2.21 5.012 5.255-.348 1.294-1.13 2.336-2.148 2.862-1.05.543-3.112.495-4.22-.1m4.415-10.79c-.093-.093-1.243-.16-2.556-.147-2.25.022-2.396-.01-2.524-.559-.075-.32-.431-4.094-.792-8.386-.36-4.293-.731-8.414-.824-9.157l-.168-1.35 1.476-.845c1.886-1.079 5.327-4.488 6.732-6.669 1.979-3.07 2.287-3.135 2.059-.434-.26 3.072-1.468 18.783-1.745 22.688-.316 4.457-.433 5.027-1.026 5.027-.255 0-.54-.076-.632-.169m-149.674-1.949v-1.852l.86-.04c2.137-.103 2.912.298 3.25 1.68.135.556.024.865-.5 1.39-.562.56-.923.674-2.143.674h-1.467zM18.91 186.31v-22.754h12.127l2.1 4.035c4.896 9.406 9.443 17.803 10.203 18.838.357.487.419.436 1.107-.922.4-.791.99-1.857 1.307-2.368.319-.511 1.211-2.12 1.983-3.576.773-1.455 1.73-3.24 2.129-3.968.398-.728 1.29-2.395 1.981-3.705 3.637-6.882 4.227-7.953 4.485-8.137.264-.187 11.47-.08 11.654.111.093.097.216 28.81.167 38.917l-.03 6.283H56.854l.011-2.58c.006-1.418-.021-6.984-.06-12.369-.072-9.77-.074-9.788-.59-9.128-.285.364-.52.741-.523.838-.005.158-2.871 5.608-4.36 8.29a839 839 0 0 0-3.87 7.144l-.707 1.323-3.303.074-3.303.074-2.327-4.44c-1.28-2.441-3.332-6.404-4.562-8.805s-2.343-4.478-2.473-4.617c-.14-.148-.237 4.768-.237 11.973v12.223H18.91zm54.811.161c-.024-21.153.003-22.6.429-22.707.25-.063 2.866-.127 5.812-.144l5.358-.029v45.473H73.747zm17.155.004v-22.589l.827-.165c.455-.091 2.711-.165 5.015-.165h4.187l.851 1.256a448 448 0 0 0 3.377 4.83l5.519 7.804c4.399 6.222 6.665 9.284 7.336 9.914l.595.56.18-6.163c.098-3.39.167-8.663.154-11.719a626 626 0 0 1-.01-6c.013-.4.572-.447 5.703-.472l5.689-.028v45.526h-10.491l-3.441-4.829c-3.123-4.381-4.78-6.784-11.269-16.338-1.137-1.673-2.167-3.077-2.289-3.119-.41-.141-.478 2.521-.347 13.435l.13 10.851H90.876zm44.98-.128v-22.763l8.038-.02c9.153-.024 13.286.277 16.478 1.202 7.298 2.115 12.51 7.537 14.414 14.997.541 2.118.624 3.067.62 7.076-.005 5.188-.243 6.406-1.983 10.186-2.194 4.765-6.39 8.644-11.241 10.39-4.028 1.45-4.07 1.454-15.545 1.578l-10.781.117zm20.948 11.186c2.797-1.154 4.455-2.858 5.772-5.931.5-1.167.647-2.069.742-4.544.141-3.688-.362-5.759-2.026-8.333-1.793-2.774-3.581-3.806-7.49-4.323-1.212-.16-3.097-.256-4.188-.211l-1.984.08-.07 12.001-.068 12 4.037-.114c3.196-.09 4.296-.22 5.275-.625M43.601 175.947c-.156-.194-1.429-2.675-2.83-5.513l-2.547-5.16V146.61l-5.49.072-5.49.071-.07 6.152-.072 6.151H18.91V126.91h8.202v12.303h11.112v-12.17h3.683c2.025 0 3.87-.073 4.101-.161.38-.146.418 1.847.418 21.386v21.547l-1.271 3.242c-.965 2.46-1.34 3.158-1.554 2.89m15.812-17.045c-4.325-1.163-7.753-4.9-8.88-9.681-.314-1.33-.395-3.776-.398-11.926l-.004-10.252h8.167l.095 9.988c.101 10.717.111 10.8 1.547 12.914.978 1.44 2.408 2.074 4.315 1.916 2.509-.208 4.286-1.994 4.897-4.922.182-.87.293-4.908.293-10.636v-9.235l4.102-.079 4.1-.079v10.302c0 8.603-.07 10.588-.428 12.039-1.23 4.985-4.533 8.44-9.24 9.666-1.972.513-6.63.505-8.566-.016m21.938-15.859V127.03l4.282.073 4.282.073 1.747 3.44c4.22 8.305 6.55 12.567 6.87 12.567.108 0 .33-.268.494-.595.164-.328.9-1.667 1.634-2.977.735-1.31 2.49-4.665 3.903-7.456l2.567-5.076 4.11-.084c2.26-.046 4.135-.079 4.166-.073.03.006.078 4.828.107 10.716.03 5.888.124 12.967.21 15.732l.157 5.027 1.231-3.308c.678-1.819 2.802-7.89 4.72-13.493a3895 3895 0 0 1 4.229-12.303l.74-2.117h9.146l.93 2.778c3.015 9.012 7.125 21.058 8.377 24.553.798 2.226 1.45 4.16 1.45 4.3 0 .148-1.71.251-4.185.251h-4.185l-1.04-3.307-1.04-3.307-5.028.066-5.027.066-.906 3.241-.907 3.241h-16.84v-8.489c0-5.199-.096-8.454-.25-8.4-.136.048-.98 1.517-1.876 3.263a1402 1402 0 0 1-3.111 6.028l-1.484 2.854-2.526-.076-2.527-.075-3.071-6.13-3.072-6.131-.143 2.604c-.08 1.433-.078 5.293.002 8.578l.146 5.974h-8.281zm52.751 2.78c-.031-.368-.584-2.448-2.025-7.616-.337-1.209-.721-2.22-.854-2.25-.133-.028-.845 2.211-1.583 4.976l-1.341 5.027 2.389.133c3.33.184 3.452.174 3.414-.27m13.13-2.758v-15.993l3.374-.08c1.856-.045 3.612-.047 3.903-.004.333.05 1.313 1.206 2.646 3.121 7.519 10.81 9.547 13.602 9.878 13.602.096 0 .199-6.492.227-14.427l.051-14.427.914-1.514a229 229 0 0 0 5.318-9.386c.835-1.564 1.567-2.844 1.627-2.844s.108 13.037.108 28.972v28.972h-7.144l-1.811-2.447c-.996-1.347-3.042-4.234-4.546-6.417-1.503-2.182-3.516-5.034-4.472-6.337l-1.738-2.368-.07 8.784-.07 8.785h-8.194z" style="fill:#e36a57;fill-opacity:1;stroke-width:.26458341" transform="translate(-18.568 -100.585)"/><path d="M18.91 244.132v-4.355l2.05-.077 2.05-.077.076-2.712c.042-1.492.19-2.73.33-2.752s.376-.052.522-.066 1.016 1.224 1.933 2.752l1.666 2.778 2.565.075c2.768.082 2.907.001 2.072-1.21-.271-.395-1.096-1.69-1.833-2.879l-1.34-2.162.866-.592c1.497-1.026 2.073-2.15 2.212-4.31.15-2.337-.443-3.95-1.845-5.02-1.643-1.252-2.83-1.497-7.256-1.497H18.91v-8.864l69.784-.032 69.783-.033 2.226-.564c1.224-.31 2.248-.534 2.275-.497.028.038.192 1.675.364 3.64.172 1.964.381 4.191.465 4.948l.152 1.376-1.806.08-1.806.078-1.085 4.498c-.598 2.474-1.143 4.664-1.213 4.867-.109.319-1.637-5.007-2.402-8.373l-.255-1.124H151l-.443 1.786c-1.09 4.402-2.083 7.72-2.273 7.603-.114-.07-.71-2.212-1.324-4.758l-1.118-4.631H143.2c-2.397 0-2.63.043-2.497.463.08.255.617 2.13 1.192 4.167 1.22 4.321 2.736 9.438 3.41 11.51l.472 1.455 2.295.076c2.014.067 2.31.018 2.43-.397.076-.26.63-2.259 1.23-4.442 1.4-5.084 1.342-4.95 1.664-3.836.148.51.758 2.652 1.357 4.762l1.088 3.837 2.254.075 2.254.076.301-.87c.166-.478 1.042-3.31 1.946-6.293s1.67-5.456 1.701-5.496.19 1.088.35 2.507c.287 2.518.278 2.611-.382 3.96-2.489 5.086.747 10.66 6.193 10.668 1.788.003 3.264-.479 4.222-1.379l.599-.562v6.178H18.91Zm34.433-5.003c.822-.39 1.804-.953 2.183-1.251l.69-.543v-8.163h-7.96l.078 2.03.077 2.029 1.058.05c2.396.111 2.29.07 2.2.846-.244 2.109-4.933 1.728-6.295-.512-1.587-2.61-.414-6.132 2.349-7.054 1.529-.51 2.153-.38 4.008.837.67.439.684.432 2.193-1.093l1.518-1.534-.549-.699c-.302-.384-1.315-1.075-2.25-1.535-1.624-.8-1.812-.832-4.157-.713-2.952.15-4.46.739-6.104 2.382a9.25 9.25 0 0 0-2.562 8.188c.627 3.456 2.381 5.694 5.496 7.01 1.32.558 1.82.625 4.02.536 2.042-.083 2.795-.235 4.008-.81m45.291.006c1.722-1.009 2.637-2.514 2.774-4.564.19-2.843-.96-4.164-4.83-5.547-3.129-1.118-3.585-1.35-3.585-1.827 0-1.547 3.348-1.529 5.068.028.252.227.572.371.712.32.374-.137 2.422-2.935 2.422-3.31 0-.396-1.238-1.294-2.528-1.834-1.537-.642-4.738-.91-6.235-.52-3.702.96-5.483 4.493-3.908 7.748.66 1.364 2.212 2.356 5.298 3.388 1.111.372 2.241.92 2.512 1.219.48.53.478.553-.131 1.046-1.175.951-4.183.363-5.772-1.13l-.577-.541-.846.962c-1.28 1.458-1.836 2.2-1.835 2.446 0 .388 2.586 2.003 4.032 2.518 1.063.379 1.955.476 3.786.413 2.05-.07 2.573-.187 3.643-.815m38.107-.049c3.597-1.778 5.716-6.01 4.926-9.836-.835-4.04-3.425-6.66-7.436-7.52-3.68-.789-8.212 1.485-9.92 4.978-1.017 2.078-1.177 5.148-.379 7.265 1.055 2.797 2.89 4.647 5.575 5.62 1.912.694 5.283.458 7.234-.507m-6.185-4.259c-1.702-1.057-2.388-3.237-1.73-5.502.347-1.19.623-1.604 1.415-2.121 2.651-1.73 5.403-.676 6.301 2.412.878 3.019-1.013 5.65-4.047 5.634-.698-.004-1.57-.194-1.939-.423m-92.052-.727c.008-3.074.038-7.019.066-8.765l.051-3.175-2.447-.076-2.448-.076v17.768l2.382-.043 2.38-.044zm23.797 2.348v-3.308h5.54l.075 3.242.074 3.24h4.762V222.16l-2.447-.076-2.447-.076v6.37H62.3v-6.37l-2.447.076-2.447.076-.04 7.56c-.02 4.158.025 8.117.101 8.797l.14 1.238H62.3zm20.638-3.308v-6.614H87.7v-4.498H73.414v4.498h4.498v3.398c0 1.869.078 4.845.173 6.614l.173 3.217h4.68zm28.604 4.035c.015-1.418.03-3.532.034-4.696.005-1.678.067-2.015.302-1.628.163.269 1.583 2.382 3.155 4.696l2.858 4.208h4.47v-17.727h-4.763l-.008 4.564c-.007 3.658-.072 4.475-.33 4.116-.178-.247-1.513-2.299-2.969-4.56l-2.645-4.112-2.382.062-2.38.062-.07 8.465c-.04 4.655-.013 8.614.057 8.797.089.232.815.333 2.385.333h2.257zm-88.4-9.062v-1.852l.86-.04c2.137-.103 2.912.298 3.25 1.68.135.556.024.865-.5 1.39-.562.56-.923.674-2.143.674h-1.467zM18.91 186.31v-22.754h12.127l2.1 4.035c4.896 9.406 9.443 17.803 10.203 18.838.357.487.419.436 1.107-.922.4-.791.99-1.857 1.307-2.368.319-.511 1.211-2.12 1.983-3.576.773-1.455 1.73-3.24 2.129-3.968.398-.728 1.29-2.395 1.981-3.705 3.637-6.882 4.227-7.953 4.485-8.137.264-.187 11.47-.08 11.654.111.093.097.216 28.81.167 38.917l-.03 6.283H56.854l.011-2.58c.006-1.418-.021-6.984-.06-12.369-.072-9.77-.074-9.788-.59-9.128-.285.364-.52.741-.523.838-.005.158-2.871 5.608-4.36 8.29a839 839 0 0 0-3.87 7.144l-.707 1.323-3.303.074-3.303.074-2.327-4.44c-1.28-2.441-3.332-6.404-4.562-8.805s-2.343-4.478-2.473-4.617c-.14-.148-.237 4.768-.237 11.973v12.223H18.91zm54.811.161c-.024-21.153.003-22.6.429-22.707.25-.063 2.866-.127 5.812-.144l5.358-.029v45.473H73.747zm17.155.004v-22.589l.827-.165c.455-.091 2.711-.165 5.015-.165h4.187l.851 1.256a448 448 0 0 0 3.377 4.83l5.519 7.804c4.399 6.222 6.665 9.284 7.336 9.914l.595.56.18-6.163c.098-3.39.167-8.663.154-11.719a626 626 0 0 1-.01-6c.013-.4.572-.447 5.703-.472l5.689-.028v45.526h-10.491l-3.441-4.829c-3.123-4.381-4.78-6.784-11.269-16.338-1.137-1.673-2.167-3.077-2.289-3.119-.41-.141-.478 2.521-.347 13.435l.13 10.851H90.876zm44.98-.128v-22.763l8.038-.02c9.153-.024 13.286.277 16.478 1.202q1.1.319 2.135.736c6.176 2.489 10.566 7.55 12.28 14.261.54 2.118.623 3.067.619 7.076-.005 5.188-.243 6.406-1.983 10.186-2.194 4.765-6.39 8.644-11.241 10.39-4.028 1.45-4.07 1.454-15.545 1.578l-10.781.117zm20.948 11.186c2.797-1.154 4.455-2.858 5.772-5.931.5-1.167.647-2.069.742-4.544.141-3.688-.362-5.759-2.026-8.333-1.793-2.774-3.581-3.806-7.49-4.323-1.212-.16-3.097-.256-4.188-.211l-1.984.08-.07 12.001-.068 12 4.037-.114c3.196-.09 4.296-.22 5.275-.625M43.601 175.947c-.156-.194-1.429-2.675-2.83-5.513l-2.547-5.16V146.61l-5.49.072-5.49.071-.07 6.152-.072 6.151H18.91V126.91h8.202v12.303h11.112v-12.17h3.683c2.025 0 3.87-.073 4.101-.161.38-.146.418 1.847.418 21.386v21.547l-1.271 3.242c-.965 2.46-1.34 3.158-1.554 2.89m15.812-17.045c-4.325-1.163-7.753-4.9-8.88-9.681-.314-1.33-.395-3.776-.398-11.926l-.004-10.252h8.167l.095 9.988c.101 10.717.111 10.8 1.547 12.914.978 1.44 2.408 2.074 4.315 1.916 2.509-.208 4.286-1.994 4.897-4.922.182-.87.293-4.908.293-10.636v-9.235l4.102-.079 4.1-.079v10.302c0 8.603-.07 10.588-.428 12.039-1.23 4.985-4.533 8.44-9.24 9.666-1.972.513-6.63.505-8.566-.016m21.938-15.859V127.03l4.282.073 4.282.073 1.747 3.44c4.22 8.305 6.55 12.567 6.87 12.567.108 0 .33-.268.494-.595.164-.328.9-1.667 1.634-2.977.735-1.31 2.49-4.665 3.903-7.456l2.567-5.076 4.11-.084c2.26-.046 4.135-.079 4.166-.073.03.006.078 4.828.107 10.716.03 5.888.124 12.967.21 15.732l.157 5.027 1.231-3.308c.678-1.819 2.802-7.89 4.72-13.493a3895 3895 0 0 1 4.229-12.303l.74-2.117h9.146l.93 2.778c3.015 9.012 7.125 21.058 8.377 24.553.798 2.226 1.45 4.16 1.45 4.3 0 .148-1.71.251-4.185.251h-4.185l-1.04-3.307-1.04-3.307-5.028.066-5.027.066-.906 3.241-.907 3.241h-16.84v-8.489c0-5.199-.096-8.454-.25-8.4-.136.048-.98 1.517-1.876 3.263a1402 1402 0 0 1-3.111 6.028l-1.484 2.854-2.526-.076-2.527-.075-3.071-6.13-3.072-6.131-.143 2.604c-.08 1.433-.078 5.293.002 8.578l.146 5.974h-8.281zm52.751 2.78c-.031-.368-.584-2.448-2.025-7.616-.337-1.209-.721-2.22-.854-2.25-.133-.028-.845 2.211-1.583 4.976l-1.341 5.027 2.389.133c3.33.184 3.452.174 3.414-.27m13.13-2.758v-15.993l3.374-.08c1.856-.045 3.612-.047 3.903-.004.333.05 1.313 1.206 2.646 3.121 7.519 10.81 9.547 13.602 9.878 13.602.096 0 .199-6.492.227-14.427l.051-14.427.914-1.514a229 229 0 0 0 5.318-9.386c.835-1.564 1.567-2.844 1.627-2.844s.108 13.037.108 28.972v28.972h-7.144l-1.811-2.447c-.996-1.347-3.042-4.234-4.546-6.417-1.503-2.182-3.516-5.034-4.472-6.337l-1.738-2.368-.07 8.784-.07 8.785h-8.194z" style="fill:#002663;fill-opacity:1;stroke-width:.26458341" transform="translate(-18.568 -100.585)"/><path d="M18.91 244.132v-4.355l2.05-.077 2.05-.077.076-2.712c.042-1.492.19-2.73.33-2.752s.376-.052.522-.066 1.016 1.224 1.933 2.752l1.666 2.778 2.565.075c2.768.082 2.907.001 2.072-1.21-.271-.395-1.096-1.69-1.833-2.879l-1.34-2.162.866-.592c1.497-1.026 2.073-2.15 2.212-4.31.15-2.337-.443-3.95-1.845-5.02-1.643-1.252-2.83-1.497-7.256-1.497H18.91v-8.864h139.832l2.094-.595c1.152-.328 2.117-.566 2.144-.53.027.037.19 1.674.362 3.639s.381 4.191.465 4.948l.152 1.376-1.806.08-1.806.078-1.085 4.498c-.598 2.474-1.143 4.664-1.213 4.867-.109.319-1.637-5.007-2.402-8.373l-.255-1.124h-4.375l-.6 2.315c-1.383 5.347-1.94 7.193-2.134 7.073-.112-.07-.708-2.21-1.322-4.757l-1.118-4.631H143.2c-2.397 0-2.63.043-2.497.463.08.255.617 2.13 1.192 4.167a539 539 0 0 0 2.04 7.012 713 713 0 0 1 1.395 4.696l.402 1.389h2.346c1.65 0 2.374-.098 2.44-.33.052-.183.591-2.177 1.2-4.432 1.403-5.212 1.353-5.092 1.678-3.97.148.51.758 2.653 1.357 4.763l1.088 3.837 2.254.075 2.254.076.301-.87c.166-.478 1.042-3.31 1.946-6.293s1.67-5.456 1.701-5.496.19 1.088.35 2.507c.29 2.547.285 2.597-.424 4.04-.602 1.225-.718 1.807-.714 3.58.005 2.392.492 3.613 2.023 5.078 2.46 2.353 6.942 2.623 9.148.551l.599-.562v6.178H18.91Zm34.478-5.002c.796-.39 1.758-.953 2.138-1.252l.69-.543v-8.296l-3.903.052-3.902.051v4.131l.926.027c2.484.074 2.422.053 2.333.826-.245 2.11-4.934 1.729-6.296-.511-1.63-2.68-.345-6.29 2.522-7.093 1.364-.382 2.17-.221 3.584.714.574.38 1.07.64 1.103.58.034-.062.71-.791 1.502-1.621l1.44-1.51-.63-.672c-.348-.369-1.343-1.026-2.211-1.46-1.37-.685-1.87-.79-3.763-.79-1.616 0-2.584.153-3.728.588-3.743 1.425-6.088 5.736-5.41 9.947.547 3.39 2.412 5.787 5.533 7.106 1.324.56 1.818.625 4.066.536 2.106-.084 2.815-.228 4.006-.81m45.246.006c1.722-1.01 2.637-2.514 2.774-4.565.195-2.908-.883-4.084-5.236-5.715-1.983-.743-3.068-1.289-3.122-1.57-.133-.689.686-1.289 1.758-1.289 1.161 0 3.376 1.045 3.272 1.544-.04.191.054.269.21.173.155-.096.459-.029.674.15.318.264.363.252.243-.063-.084-.218.336-1.042.964-1.889 1.161-1.568 1.531-1.795.991-.61-.175.384-.231.783-.126.889.207.207 4.887.123 5.238-.094.117-.072.24-1.047.274-2.166.033-1.12.122 1.954.198 6.829l.138 8.863h4.752l.005-4.542c.003-2.498.05-4.496.107-4.44s.533.792 1.059 1.634 1.887 2.87 3.026 4.506l2.07 2.974h4.459l.05-8.268.056-8.863c.006-.703.068-.724.593-.199.24.24.278.397.096.397-.426 0-.215 1.388.234 1.535.252.083.3.006.152-.244-.12-.203.02-.16.315.098.291.255.64.461.773.46.134-.003.065-.12-.153-.261-.3-.195-.31-.258-.042-.26.53-.007 1.555-.89 1.438-1.24a.43.43 0 0 1 .175-.474c.161-.1.214-.012.128.213-.081.211-.002.474.176.584.194.12.256.09.153-.075-.252-.409.478-.902 1.025-.692.325.125.414.085.282-.128-.122-.197.002-.31.341-.31.634 0 1.88-.534 1.88-.805 0-.408 1.078-.435 3.076-.076 3.221.579 5.39.724 5.73.384 11.524-.845 21.603-2.682 24.083-9.244 0-.393-1.546.305-2.087.282-.4-.017-1.97.573-2.094.595s-28.086-.39-63.543-.393c-5.86-.378-64.552.37-76.29.393-.176.406-.066 3.697-.066 3.697s44.78 4.079 45.203 4.324c.678.394 2.117.463 12.146.587 9.712.12 10.341.15 4.3.199l-7.078.058v4.498h4.498v4.988c0 2.743.076 5.72.17 6.614l.17 1.627h4.687v-13.229H87.7v-2.265c0-1.373.1-2.203.253-2.108.14.086.178.352.087.59-.124.323-.057.393.262.27.316-.121.387-.053.267.26-.119.308.064.255.675-.196.46-.341.837-.736.837-.879 0-.142.075-.184.166-.093.092.092.598-.016 1.125-.238 1.266-.534 4.216-.763 5.06-.392.565.248.494.267-.488.13-4.404-.617-7.952 1.911-7.972 5.678-.015 2.982 1.727 4.524 6.906 6.112.528.162 1.182.54 1.453.839.483.533.48.555-.13 1.048-1.174.951-4.182.363-5.771-1.13l-.578-.541-.845.962c-1.28 1.457-1.836 2.199-1.835 2.445 0 .389 2.586 2.003 4.032 2.519 1.063.378 1.955.476 3.785.413 2.052-.07 2.574-.188 3.644-.815zm16.148-12.28c-3.226-5.05-3.254-5.1-2.564-4.497.291.255.628.374.749.265.12-.11.133-.05.027.134-.216.376.73 1.734 1.012 1.452.1-.1.096.043-.01.317q-.189.496.097.32c.159-.098.45-.016.65.183.198.198.713.348 1.145.333.757-.027.794-.087 1.02-1.673.225-1.583.27-1.656 1.19-1.961.99-.328 3.358-.338 3.85-.016.155.1-.772.242-2.06.315l-2.34.132.037 4.432c.02 2.437-.003 4.432-.052 4.432s-1.287-1.875-2.75-4.167zm-14.146-3.384c-.224-.224-1.113-.697-1.975-1.052-1.59-.653-1.53-.822.153-.426.831.196 3.041 1.886 2.466 1.886-.13 0-.42-.183-.644-.408m6.645-1.709c.218-.14.992-.256 1.72-.256.727 0 1.5.115 1.72.256.273.178-.258.257-1.72.257-1.464 0-1.995-.08-1.72-.257m29.46 17.323c3.597-1.778 5.716-6.01 4.926-9.836-.663-3.208-2.496-5.615-5.242-6.884-1.228-.568-1.897-.694-3.744-.705-2.01-.013-2.437.076-4.014.84-3.346 1.623-5.247 4.615-5.247 8.258 0 3.16 1.437 6.022 3.86 7.69 1.816 1.249 3.073 1.578 5.665 1.484 1.843-.067 2.528-.22 3.796-.847m-6.185-4.259c-1.702-1.057-2.388-3.237-1.73-5.502.347-1.19.623-1.604 1.415-2.121 2.651-1.73 5.403-.676 6.301 2.412.878 3.019-1.013 5.65-4.047 5.634-.698-.004-1.57-.194-1.939-.423m-92.056-.694c.006-3.093.052-7.081.103-8.864l.092-3.241h-4.969v17.727h4.762zm23.801 2.315v-3.308h5.557v6.635l2.447-.076 2.447-.076.07-8.798.07-8.797h-5.034v6.35H62.3v-6.37l-2.447.076-2.447.076-.032 8.6c-.018 4.729.019 8.687.082 8.797.062.109 1.178.198 2.479.198H62.3zm34.66-8.174c0-.057-.184-.175-.41-.262-.235-.09-.341-.046-.249.104.156.252.66.372.66.158m-73.818-.16v-1.853l.86-.04c2.137-.103 2.912.298 3.25 1.68.135.556.024.865-.5 1.39-.562.56-.923.674-2.143.674h-1.467zm-4.233-41.755v-22.704l6.076-.064 6.076-.063a339 339 0 0 0 4.38 8.494c1.052 1.964 2.59 4.863 3.417 6.442 1.803 3.435 3.946 7.247 4.485 7.975.382.515.397.511.717-.19.18-.394.448-.642.597-.55.16.1.207 0 .114-.242-.087-.225-.001-.634.19-.907.312-.445 1.591-2.766 4.426-8.03.509-.946 1.182-2.17 1.496-2.721.314-.55 1.6-2.992 2.857-5.424s2.395-4.494 2.527-4.58.681-.123 1.22-.082c.537.042 3.15.082 5.806.091l4.828.016v45.243H56.877l-.067-11.972c-.044-7.957.021-11.84.195-11.576.144.219.263.903.265 1.522l.004 1.124 4.961-.004c2.729-.002 5.113-.1 5.298-.217.265-.169.318-2.493.25-11.043-.046-5.955-.152-11.16-.234-11.565-.168-.824-.483-1.273-.49-.697-.002.31-.046.308-.252-.018-.201-.318-1.088-.406-4.614-.458-2.773-.04-4.426.035-4.533.208q-.168.273-.534-.032c-.482-.4-1.217.303-1.27 1.214-.02.358-.131.652-.247.652s-.19.149-.167.33c.093.714-.037.97-.417.824-.296-.114-.397.041-.397.61 0 .765-.846 1.79-1.2 1.455-.104-.097-.101.106.005.452.132.428.101.571-.096.45-.182-.113-.231-.027-.132.23.086.227.028.411-.129.411-.307 0-1.241 1.58-1.143 1.933.032.117-.123.394-.345.616-.222.223-.325.532-.228.689.104.168.05.207-.13.095-.188-.116-.308-.004-.312.29-.003.263-.238.776-.523 1.14-.284.364-.52.877-.523 1.14-.004.297-.123.406-.316.287-.21-.13-.253-.045-.135.263.096.25.066.387-.067.305-.327-.202-.495.655-.26 1.326.16.46.083.54-.511.529-.552-.01-.721.127-.794.648-.051.364-.19.722-.31.796-.119.074-.256.31-.304.523s-.24.552-.427.753-.268.62-.18.932c.111.402.085.463-.091.209-.286-.413-.72.05-.453.482.087.141-.084.408-.381.593s-.54.54-.54.79c0 .248-.152.547-.338.663-.186.117-.46.498-.61.848l-.273.636-.854-.835c-.47-.459-.785-.834-.702-.834.082 0 .014-.254-.152-.565-.243-.455-.35-.493-.547-.198-.165.247-.191.14-.082-.333.09-.389.036-.776-.121-.873-.174-.108-.223-.017-.126.235.087.226.09.411.007.411s-.277-.47-.432-1.046-.451-1.217-.659-1.424c-.207-.208-.314-.44-.236-.519.241-.24-.442-1.269-.727-1.093-.153.095-.233-.043-.185-.323.046-.27-.052-.464-.22-.433-.186.035-.246-.16-.156-.504.102-.39.05-.502-.166-.368-.188.116-.284.053-.24-.157.04-.193-.065-.325-.233-.293s-.375-.123-.46-.344c-.096-.25-.045-.335.134-.224.16.098.113-.104-.103-.45a5.3 5.3 0 0 1-.56-1.345c-.123-.531-.286-.68-.627-.57-.395.126-.404.104-.063-.163.3-.234.316-.342.066-.443-.182-.074-.33-.31-.33-.525s-.118-.318-.262-.229c-.155.096-.19-.023-.087-.292.128-.335.08-.397-.18-.235-.265.163-.309.098-.172-.259.162-.422.13-.435-.27-.11-.27.22-.376.24-.263.05.106-.176.029-.711-.17-1.19-1.215-2.119-.453-.477-1.395-2.063-.301-.5-.365-.532-.261-.132.779 2.913-1.958-4.2-1.959-4.27.088-.833-.01-1.748-.405-1.419-3.559-.28-5.698-.493-10.517-.175l-1.257.175c0-.43.992 27.276-.163 20.235-.098-.81.84 3.198 1.618 2.953.233-.09.397-.004.397.208 0 .608.724.7 5.235.667l4.353-.031-.124-1.284c-.068-.706-.024-1.44.097-1.631.121-.19.222 5.1.224 11.758l.004 12.104H18.91zm54.838 12.589c-.034-5.569.04-10.9.163-11.845.216-1.656.226-1.673.26-.463.024.81.154 1.257.367 1.257.182 0 2.325.03 4.763.066l4.431.066.02 1.058c.01.582.116 1.297.235 1.588.128.312.16-.15.077-1.125-.12-1.413-.077-1.653.293-1.653.239 0 .434-.172.434-.382s.12-.454.265-.544c.174-.108.264 3.607.264 10.948v11.112l-5.754.021-5.755.021zm9.67 7.8c-.108-.557-.577-.522-.697.052-.05.24.096.411.35.411.273 0 .402-.173.347-.463m.509-4.888c-.056-.622-.103-.178-.104.986 0 1.164.045 1.673.102 1.131a13 13 0 0 0 .002-2.117zm-.003-4.24c-.059-.473-.107-.086-.107.86s.048 1.333.107.86a8.4 8.4 0 0 0 0-1.72m-.281-6.085c-.073-.182-.133-.033-.133.33 0 .364.06.513.133.331s.073-.48 0-.661m7.233-5.093V163.82h4.2c2.31 0 4.543-.069 4.962-.153.71-.142.866-.002 2.348 2.126.873 1.253 2.34 3.316 3.26 4.584.92 1.269 1.787 2.515 1.927 2.77.473.858.002.47-.964-.795-.527-.69-1.098-1.257-1.268-1.257s-.32-.179-.331-.397c-.03-.537-.68-1.851-.915-1.851-.105 0-.337-.356-.518-.79-.18-.435-.435-.724-.567-.642-.133.081-.212.05-.177-.07.106-.363-1.216-2.196-1.588-2.2-.19-.001-.272-.121-.182-.267s.03-.265-.133-.265c-.162 0-.222-.119-.132-.264.224-.363-7.482-.35-8.525.014-.695.242-.822.442-.97 1.521-.253 1.832-.177 21.297.084 21.719.181.293 1.095.332 4.817.206 4.749-.16 5.19-.2 5.677-.505.35-.22.635 6.819.636 15.74v6.02h-11.64zm9.332 21.125c-.18-.073-.537-.077-.794-.01s-.11.126.326.132c.436.005.647-.05.468-.122zm-5.942-.686c.054-.283-.074-.463-.328-.463-.229 0-.416.168-.416.374a.62.62 0 0 1-.33.523c-.183.08-.035.12.327.088.387-.035.695-.25.747-.522m-1.009-11.444c0-.509-.112-.926-.248-.926-.137 0-.296-.446-.353-.992-.057-.55-.123-.137-.148.926-.036 1.549.032 1.918.352 1.918.278 0 .397-.279.397-.926m24.606 10.914c-3.329-4.635-5.61-7.934-12.303-17.793-2.59-3.814-2.603-3.836-2.321-3.836.123 0 .449.387.724.86.643 1.103 1.418 1.786 2.027 1.786.347 0 .432.127.305.463-.166.436-.15.437.28.01.399-.394 1.035-.448 4.947-.416 2.47.02 4.49.133 4.49.253s-.14.219-.31.219-.246.062-.17.138c.276.276.972-.191.831-.557-.087-.228.024-.375.284-.375.362 0 .336-.14-.165-.904-.326-.497-.714-.835-.862-.751s-.182.055-.074-.064c.108-.12.061-.38-.104-.578-.165-.199-.253-.406-.196-.461s.759.687 1.56 1.648c.8.961 1.574 1.721 1.72 1.69.145-.033.242-.74.216-1.576-.046-1.461-.035-1.488.301-.733.192.432.32 1.053.284 1.38l-.066.595 4.66-.14c2.562-.076 4.927-.194 5.256-.26l.599-.122-.07-11.305-.068-11.306-3.777-.036c-2.078-.02-4.4.04-5.16.132l-1.382.17-.138 8.73-.138 8.732-.06-9.129-.06-9.128h11.376v45.376H119.81zm1.356-1.062c-.261-.26-.291-.23-.148.148.1.26.248.408.329.326s0-.295-.18-.474m-4.217-5.279c-.19-.19-.313-.205-.313-.04 0 .354.313.667.49.49.074-.075-.005-.278-.177-.45m-4.25-5.413c-.312-.536-.387-.364-.132.301.09.236.221.374.29.306.067-.068-.003-.341-.158-.607m-.032-1.027c0-.227-.121-.338-.27-.247-.147.092-.2.277-.116.413.227.367.386.298.386-.166m-.428-.792c.09-.236.046-.342-.104-.25-.144.09-.262.274-.262.411 0 .381.19.297.366-.161m-1.508-2.285c-.085-.211-.147-.148-.16.16-.011.279.051.435.139.347s.097-.316.02-.507m27.071-4.029c0-12.454.09-22.652.199-22.661 1.992-.167 16.025-.145 18.48.029 5.576.395 9.895 1.962 13.392 4.86 3.806 3.156 6.184 7.441 7.243 13.053.582 3.087.393 9.192-.362 11.708-2.006 6.681-6.648 11.815-12.626 13.963-4.034 1.449-4.07 1.453-15.544 1.577l-10.782.116zm20.484 11.184c2.874-.966 4.756-2.693 6-5.507 1.688-3.814 1.4-9.318-.674-12.917-.358-.622-.588-1.298-.51-1.5.077-.204-.116-.627-.43-.941-.315-.315-.506-.639-.424-.72.19-.19 1.199 1.016 1.21 1.449.005.182.128.33.273.33s.265.292.265.648.29.961.645 1.344.58.867.5 1.076a.8.8 0 0 0 .118.706c.145.18.338.923.43 1.65.091.728.215 1.562.275 1.853s.117.737.128.992c.024.534 1.208.583 6.9.29l3.307-.17.033-1.151c.024-.851-.069-1.152-.355-1.152-.308 0-.368-.316-.29-1.521.081-1.266.008-1.606-.439-2.023l-.536-.501.616.15c.5.124.582.069.435-.292-.1-.244-.358-.95-.575-1.568s-.525-1.124-.686-1.124c-.2 0-.192.1.025.317.174.175.3.621.281.992-.033.623-.045.63-.15.08-.064-.328-.226-.595-.362-.595s-.258-.328-.272-.728l-.027-.728-.211.662c-.18.56-.22.48-.27-.53-.069-1.458-.086-1.572-.346-2.305-.2-.565-.35-.622-2.56-.96-.453-.07-.355-.113.313-.138.874-.032.967-.104.904-.698-.095-.888-.273-1.02-1.095-.814-.546.137-.633.252-.403.53.224.27.192.395-.13.518-.797.306-1.97.18-1.97-.211 0-.206-.129-.418-.287-.47-.354-.119.036-1.824.424-1.854.143-.01.376.23.517.535.193.418.48.547 1.16.522.762-.03.836-.083.474-.347-.235-.172-.387-.36-.337-.419s-.428-.37-1.062-.69c-.87-.442-1.153-.497-1.153-.222 0 .258-.248.328-.86.241-1.238-.175-1.576-.323-1.397-.612.086-.14.332-.188.546-.106.213.082.388.025.388-.126s-.238-.35-.53-.443c-.29-.093-.528-.339-.528-.547 0-.545-.865-1.332-1.693-1.54-.39-.097-.639-.293-.552-.434.088-.142.033-.257-.121-.257-.471 0-.313.442.315.88.569.396.557.401-.265.106-.53-.19-.86-.488-.86-.777q.001-.468-.595-.456c-.327.006-1.19-.107-1.918-.251-2.693-.535-4.421-.635-12.676-.74-5.458-.069-8.537-.012-8.71.16-.289.29-.293 21.844-.003 22.312.105.17 1.859.21 4.892.11 4.337-.142 5.605-.324 5.54-.797-.012-.096-.023-2.734-.023-5.863 0-3.616.096-5.688.264-5.688.173 0 .265 4.086.265 11.73 0 6.45.05 11.779.11 11.84s1.697.07 3.638.023c2.638-.066 3.923-.22 5.094-.613m15.235-19.056c0-.963.116-.928.365.11.103.432.065.728-.095.728-.149 0-.27-.377-.27-.838m-11.948-1.92c-1.813-1.648-3.992-2.302-8.226-2.47-1.922-.076-3.374-.245-3.374-.392 0-.141.179-.189.397-.105s.399.007.4-.17c.004-.22.067-.231.2-.039.207.305.716.307 2.906.015.973-.13 1.389-.094 1.389.118 0 .19.245.24.661.136.364-.091.662-.058.662.074s.35.29.78.354c.428.063.737.047.686-.036s.242-.15.65-.15c.41 0 .683.096.61.215-.074.12.115.282.42.361.303.08.487.25.407.38-.08.128.22.234.664.234.446 0 .81.126.81.28s.117.207.261.119c.152-.094.194.016.1.262-.098.253.082.685.444 1.071 1.033 1.1.453.923-.847-.258zm11.022-1.74c-.09-.145-.037-.264.117-.264s.28.119.28.264-.053.265-.117.265-.19-.12-.28-.265m-23.416-.794c0-.145.126-.264.28-.264s.207.119.117.264-.216.265-.28.265-.117-.12-.117-.265m12.568-7.408c-.207-.335.143-.335.662 0 .342.221.335.257-.051.26-.246.003-.521-.114-.61-.26M38.612 199.745a245 245 0 0 0-3.12-5.895c-.882-1.6-2.235-4.28-3.008-5.953-.772-1.674-1.523-3.083-1.668-3.131-.146-.049-.263-.287-.26-.53.002-.38.038-.386.254-.043.138.218.404.402.592.408.187.007.307.165.267.35-.043.202.055.26.24.146.218-.135.268-.02.164.377-.082.314-.023.648.132.744.175.108.201.045.07-.167q-.21-.34.158-.217c.318.105.566.64.923 1.992.066.252 2.29.324 9.687.315 9.111-.011 11.81-.196 11.446-.786-.086-.138-.06-.252.06-.252.118 0 .486-.59.817-1.312s.724-1.388.872-1.48c.272-.168-2.574 5.576-4.465 9.01a786 786 0 0 0-2.66 4.894 391 391 0 0 1-2.013 3.705c-.364.643-.466.663-3.673.735l-3.297.074zm46.505-16.082c0-.509.054-.717.12-.463a2.2 2.2 0 0 1 0 .926c-.066.255-.12.047-.12-.463m29.344-.273c-.343-.286-.522-.522-.397-.524.126-.002.053-.115-.161-.25-.214-.136-.32-.316-.236-.4s.475.265.866.779c.813 1.065.802 1.123-.072.395m4.523-.256c0-.51.054-.717.12-.463.067.255.067.672 0 .926-.066.255-.12.047-.12-.463m-6.391-2.395c-.427-.59-.875-1.095-.994-1.124-.12-.03-.183-.154-.142-.279.042-.124-.065-.395-.236-.602s-.257-.43-.19-.496c.101-.102 1.781 2.135 2.435 3.243.452.764-.157.247-.873-.742m-27.496-.515c0-.364.06-.513.134-.33.073.181.073.479 0 .66-.074.182-.134.034-.134-.33m-11.314-8.467-.028-7.937h5.364c2.95 0 5.552-.073 5.783-.16.371-.144.418.35.414 4.43-.003 3.103-.088 4.464-.264 4.196-.143-.218-.202-.694-.132-1.058s.039-2-.07-3.638-.1-2.977.02-2.977c.119 0 .152-.105.072-.234s-2.452-.254-5.273-.277l-5.128-.044-.163.609c-.09.334-.165 3.852-.167 7.818s-.093 7.21-.202 7.209c-.109 0-.21-3.572-.226-7.937m35.664 4.564-1.26-1.918c-.311-.474-.24-.437.255.132 1.169 1.345 2.324 3.043 2.07 3.043-.133 0-.612-.566-1.065-1.257m-24.656-.066a.265.265 0 0 1 .53 0 .265.265 0 0 1-.53 0m-41.195-.309c-.157-.194-1.43-2.692-2.828-5.552l-2.544-5.2v-18.582l-5.49.07-5.49.072-.07 6.152-.072 6.151H18.91V126.91h8.202v12.283l5.622.077 5.623.076-.076-6.152-.075-6.151h3.692c2.03 0 3.88-.073 4.11-.161.38-.146.418 1.845.418 21.365l-.001 21.526-1.272 3.263c-.969 2.485-1.34 3.179-1.557 2.91zm.383-31.84 1.918-.175-.044-7.584c-.025-4.172-.115-6.87-.202-5.997-.144 1.457-.175 1.518-.37.74-.118-.465-.133-1.388-.033-2.05.165-1.106.135-1.204-.38-1.204-.307 0-.544.09-.527.199.097.614-.15.804-1.238.953-1.343.184-1.968.653-1.968 1.475 0 .302-.15.552-.331.557-.811.02-1.342 1.4-1.649 4.287-.17 1.591-.295 3.183-.28 3.537.024.535-.149.692-1.01.924-1.077.29-9.615.167-11.745-.168l-1.125-.178v2.701h-1.323c-.727 0-1.323-.098-1.323-.22 0-.12-.178-.22-.397-.22-.218 0-.396.1-.396.22 0 .122.119.22.264.22.385 0 .325 1.52-.066 1.678-.182.073.301.143 1.074.154.772.012 1.343-.078 1.268-.2-.075-.12.037-.22.25-.22.211 0 .384.085.384.189 0 .103 2.706.21 6.012.234 3.306.026 6.036.07 6.065.098.166.162 5.549.2 7.172.05m-17.66-2.776c0-.145.327-.263.727-.26.567.003.64.06.33.26-.517.335-1.058.335-1.058 0m17.99-11.245c0-.509.12-.926.265-.926s.265.417.265.926-.12.926-.265.926-.264-.416-.264-.926m40.482 44.334c0-.72.12-1.381.265-1.471.164-.102.264.394.264 1.307 0 .81-.119 1.47-.264 1.47s-.265-.587-.265-1.306m-25.378-15.517c-4.325-1.163-7.753-4.9-8.88-9.681-.314-1.33-.395-3.776-.398-11.926l-.004-10.252h8.202v9.337c0 10.224.138 11.445 1.527 13.49.962 1.419 2.198 2.043 4.038 2.043 2.51 0 4.599-1.892 5.26-4.765.16-.696.277-5.097.28-10.634l.007-9.446 4.114-.079 4.115-.079-.088 10.98-.088 10.98-.71 1.936c-1.548 4.224-4.571 6.99-8.856 8.1-2.02.523-6.567.52-8.52-.005zm14-4.343c0-.145-.052-.264-.116-.264s-.19.119-.28.264-.037.265.117.265.28-.12.28-.265M54.734 144.2c1.562-.036 2.904-.17 2.983-.296.078-.127.125-3.523.104-7.545-.028-5.396-.122-7.367-.358-7.517-.176-.112-.2-.221-.055-.243s-.152-.126-.662-.234l-.926-.194.926-.043c.625-.03.797-.11.53-.25-.219-.114-1.767-.13-3.44-.038-1.674.093-2.947.19-2.829.215s.127.187.02.36c-.181.294-.22 1.518-.35 11.195-.05 3.669.082 4.764.54 4.481.13-.08.237-.013.237.15 0 .162.099.234.22.16.12-.074 1.497-.165 3.06-.2m-3.742-12.263c.003-.582.057-.789.12-.46.064.33.061.806-.005 1.059s-.118-.017-.115-.599zm1.193-3.759c.33-.063.806-.06 1.059.005.253.067-.017.118-.599.115s-.789-.057-.46-.12zm21.902 15.74 3.164-.074-.078-7.144c-.043-3.93-.111-7.56-.152-8.067l-.074-.923-3.287.051c-3.985.062-3.945.057-3.288.34.515.221.516.228.013.246-.4.014-.445.089-.198.336.175.175.309.502.299.728-.013.29-.085.256-.246-.12-.134-.312-.235 2.592-.246 7.094-.012 5.019.072 7.566.246 7.459.145-.09.266.052.268.315.003.327.07.377.209.157.137-.216 1.245-.347 3.37-.397m7.314-.874.084-16.013 4.182.072 4.183.072 1.988 3.836c2.83 3.163 3.225 10.4 6.898 12.552.205.079.298.025.209-.12-.09-.145.396-1.304 1.079-2.577s1.833-3.42 2.556-4.772c1.076-2.014 1.381-2.403 1.685-2.15.204.169.37.434.37.59s-.174.051-.388-.231c-.467-.617-.527-.31-.097.496.265.497.253.533-.082.257-.326-.27-.514-.077-1.153 1.186-.42.83-.746 1.747-.724 2.038q.039.528-.165.197c-.144-.233-.308-.113-.549.4-.188.404-.464.966-.612 1.25-.191.366-.182.547.03.618.166.055.301.224.301.375 0 .174-.136.162-.372-.034-.299-.248-.453-.145-.79.53-.229.46-.34.96-.248 1.11.098.158.04.194-.136.084-.185-.114-.306-.013-.306.255 0 .313.156.403.53.305.29-.076.464-.034.385.095-.08.13.916.207 2.248.174 1.92-.048 2.393-.138 2.397-.457.004-.344.037-.346.248-.011.198.312.42.198 1.174-.601l.93-.987-.936 2.057c-.515 1.13-1.029 2.175-1.14 2.32-.113.146-1.135 2.085-2.272 4.309l-2.067 4.044-2.534-.076-2.533-.075-2.307-4.498c-2.246-4.379-3.75-7.79-3.532-8.009.06-.06.345.409.635 1.04q.526 1.146.554.62c.02-.416.077-.45.262-.157.261.412 1.205.544 3.592.5a82 82 0 0 1 2.183-.015c.328.007.596-.089.596-.212 0-.491-.62-1.547-.833-1.416-.124.077-.226-.053-.226-.288 0-.236-.117-.355-.261-.267-.149.092-.195-.011-.108-.24.085-.22-.095-.75-.4-1.178-.304-.428-.554-.904-.554-1.059 0-.557-.886-2.125-1.12-1.98-.13.08-.209-.014-.173-.21.09-.501-.863-2.349-1.128-2.185-.12.074-.148-.05-.06-.276.086-.226.029-.41-.128-.41s-.209-.198-.116-.44c.102-.266.063-.375-.1-.275-.147.092-.543-.42-.879-1.137s-.723-1.235-.86-1.15c-.138.086-.117-.095.046-.4.247-.461.23-.529-.106-.4-.232.089-.42.003-.443-.205l-.07-.654c-.017-.162-.207-.508-.423-.768s-.393-.543-.393-.628-1.19-.12-2.646-.08c-1.877.054-2.53-.003-2.249-.197.31-.213.209-.274-.463-.277-.473-.002-.86.122-.86.276s-.095.222-.21.15c-.117-.072-.385-.021-.596.113-.333.21-.331.244.013.25.352.008.352.037 0 .265q-.397.257-.066.261c.211.003.318.362.296.996l-.035.992-.17-.926c-.303-1.645-.448-.134-.508 5.292-.03 2.838-.126 5.892-.212 6.786-.146 1.537-.12 1.64.468 1.84.343.118 1.867.22 3.387.226 2.402.01 2.826-.055 3.241-.501.47-.505.478-.503.483.132.003.355.074 4.009.156 8.12l.15 7.474h-8.283zm3.126 15.056c0-.056-.297-.101-.661-.101s-.661.102-.661.228c0 .125.297.17.661.101.364-.07.661-.172.661-.228m3.198-.695c-.239-1.166-1.08-1.351-1.08-.238 0 .614-.136.821-.596.91-.328.063-.045.13.628.15l1.223.036zm19.848-6.748c.014-4.623.121-8.103.238-7.74.116.364.225.483.242.265.024-.317.075-.327.253-.046.165.26 1.021.345 3.328.33 1.708-.01 3.223-.091 3.366-.18.164-.1.234-3.032.189-7.904l-.072-7.743-2.529-.134c-1.494-.08-2.594-.03-2.69.121-.09.14-.387.232-.662.203a10 10 0 0 0-1.293-.004c-.691.042-.725.078-.264.276.458.197.423.232-.265.265-.688.032-.723.067-.265.264l.53.228-.53.024c-.387.017-.763.522-1.4 1.877-.479 1.02-.807 1.958-.729 2.084.14.225-.63.658-.824.463-.054-.054.587-1.48 1.425-3.169l1.524-3.07 4.17-.078 4.17-.079.032 10.98c.035 11.868.277 20.744.548 20.109.743-1.742 4.85-13.493 9.063-25.93l1.657-4.894 4.505-.072c4.104-.066 4.523-.03 4.699.397.106.258 1.297 3.743 2.646 7.745 3.296 9.775 5.677 16.706 6.986 20.329.596 1.649 1.084 3.107 1.084 3.24 0 .138-1.825.243-4.186.243h-4.185l-1.04-3.302-1.04-3.302-5.065-.005-5.065-.005-.172.727c-.094.4-.49 1.889-.879 3.308l-.707 2.58h-16.82zm10.821 7.342c0-.146-.112-.265-.249-.265s-.322.12-.412.265.022.264.249.264c.226 0 .412-.119.412-.264m15.743-12.039c0-.608-2.446-9.35-2.794-9.988-.14-.254-.184-.463-.1-.463.307 0 .91.766.91 1.156 0 .22.113.47.252.557.14.086.195.31.123.496-.17.444.54 1.81.81 1.558.114-.107.147.373.072 1.066-.078.733-.02 1.332.138 1.43s.194.04.085-.136c-.104-.168-.053-.306.112-.306.2 0 .24.279.12.827-.126.575-.093.772.111.646.161-.1.293-.055.293.099 0 .311 3.444.383 5.116.107 1.242-.206 1.372-.49.823-1.804-.334-.8-.484-.942-.687-.648-.189.274-.213.211-.088-.232.094-.334.035-.772-.131-.972s-.281-.523-.255-.715c.084-.618-.007-.966-.346-1.324-.429-.453-.989-2.06-1.004-2.882-.012-.613-.03-.606-.386.151l-.374.794.146-.794c.08-.436.208-1.02.284-1.297.103-.376.033-.462-.278-.343-.347.133-.374.05-.164-.504.185-.487.171-.614-.053-.475-.208.129-.258.008-.156-.382.082-.314.042-.505-.09-.423-.244.15-.337-.312-.287-1.432.018-.411-.15-.669-.495-.759-.287-.075-.591-.412-.676-.749-.106-.42-.284-.562-.57-.452-.255.098-.349.05-.242-.122.121-.196-.164-.204-.949-.026-1.112.252-2.832.177-4.227-.184-.397-.103-.933-.096-1.19.016-.257.113-.543.19-.635.173s-.163.113-.157.289c.032.964-.088 1.368-.304 1.026-.15-.237-.283.023-.406.794-.1.63-.362 1.42-.58 1.753-.22.334-.327.83-.241 1.103.086.272.034.57-.115.663-.169.104-.207-.014-.101-.309.094-.262.085-.4-.02-.306s-.247.63-.316 1.191c-.07.56-.24 1.06-.38 1.108s-.255.31-.255.58-.106.556-.235.636-.328.593-.442 1.14c-.25 1.197-.2 1.042-.724 2.215-.235.526-.482 1.24-.548 1.588a9.5 9.5 0 0 1-.405 1.369c-.234.603-.211.766.129.896.615.236 5.782-.167 5.885-.46.049-.137.215-.172.37-.077q.28.174.101-.594c-.107-.458-.087-.63.05-.426q.227.338.565-1.191c.185-.842.455-1.851.6-2.243.143-.391.171-.856.062-1.033q-.199-.321.135-.115c.249.154.286.054.145-.389-.141-.446-.104-.543.149-.387.24.149.29.082.169-.231-.093-.242-.054-.44.087-.44s.257.129.257.287c0 .252-1.259 5.173-2.24 8.763-.188.685-.306 1.28-.262 1.323.23.224 5.809.044 5.809-.187m-6.288-18.157c.179-.18.393-.262.474-.18.081.081-.065.23-.326.329-.377.143-.408.113-.148-.149m8.008.181c0-.064-.12-.19-.265-.28s-.265-.037-.265.117.12.28.265.28.265-.053.265-.117m11.377 15.066v-16.007l3.902.008c3.722.008 3.923.035 4.328.595.234.323 1.85 2.675 3.593 5.227 3.746 5.488 7.671 10.838 7.953 10.838.11 0 .225-6.495.255-14.434l.056-14.434.91-1.507a229 229 0 0 0 5.314-9.379c.834-1.564 1.566-2.844 1.626-2.844s.109 13.04.109 28.98v28.979l-3.634-.074-3.634-.073-2.316-3.175a412 412 0 0 1-5.231-7.409c-1.604-2.328-3.332-4.784-3.841-5.457l-.925-1.223h.683c.448 0 .775.2.95.586.255.56.41.585 3.4.562 3.008-.023 3.137-.047 3.245-.606.067-.35-.043-.642-.276-.73-.329-.127-.333-.216-.027-.587.325-.394.282-.421-.433-.272-.437.091-.645.1-.463.022.465-.202.413-.894-.066-.894-.218 0-.399-.208-.401-.463-.003-.4-.043-.408-.285-.066-.22.31-.257.24-.167-.323.063-.395.013-.656-.111-.58-.125.078-.227-.105-.227-.404s-.149-.559-.33-.575l-.728-.067c-.278-.025-.371-.272-.31-.827.047-.436.004-.71-.096-.61s-.514-.184-.92-.63c-.518-.566-.776-.7-.859-.447-.066.2-.08.112-.03-.194.049-.305-.147-1.044-.436-1.64-.288-.597-.524-1.21-.524-1.363s-.15-.277-.332-.277-.494-.364-.69-.81c-.198-.444-.415-.752-.484-.683-.068.068-.003.353.147.632.208.388.185.508-.099.508-.204 0-.312-.096-.24-.213s-.076-.603-.33-1.08-.433-.972-.397-1.099-.118-.16-.342-.074-.616.076-.871-.022c-.389-.15-.357-.203.198-.337 1.209-.291-.196-.405-3.042-.247-1.996.111-2.288.167-1.191.23.8.045 1.812.163 2.249.261l.794.179-1.059.184c-.582.1-1.415.167-1.852.147-.604-.028-.51-.081.397-.222l1.19-.185-1.256-.04c-.848-.027-1.258.068-1.26.291-.004.246-.062.24-.23-.024-.294-.464-.543 2.655-.73 9.128-.134 4.65-.108 5.076.309 5.16.25.049 1.798.053 3.44.008 2.915-.08 2.99-.097 3.148-.727.089-.356.279-.646.421-.646.165 0 .26 3.2.26 8.731v8.731h-8.202zm25.327-.926c.499-.392.56-.53.24-.53-.376 0-.432-.412-.432-3.174v-3.175h-1.058c-1.054 0-1.059-.005-1.059-1.03 0-.672-.138-1.083-.396-1.183-.25-.095-.397-.5-.397-1.086 0-.615-.124-.935-.363-.935-.404 0-.575 1.37-.86 6.891-.15 2.915-.117 3.374.278 3.768.247.248.375.57.284.716-.103.168.437.267 1.463.267 1.227 0 1.793-.13 2.3-.53m-11.834-5.292a.265.265 0 0 0-.264-.264.265.265 0 0 0-.265.264.265.265 0 0 0 .53 0m10.32-3.953c0-.312-.517-.646-.706-.457-.19.19.144.706.456.706a.25.25 0 0 0 .25-.249m-74.18 9.906c-.084-.218-.05-.397.076-.397.125 0 .296.179.38.397s.05.397-.076.397c-.125 0-.296-.178-.38-.397" style="fill:#002663;fill-opacity:1;stroke-width:.26458341" transform="translate(-18.568 -100.585)"/><path d="M156.758 248.247c0-.132.238-.178.529-.102.29.076.529.184.529.24s-.238.101-.53.101c-.29 0-.528-.108-.528-.24M18.91 243.988v-4.233h4.233v-2.778c0-2.706.016-2.778.595-2.775.48.003.898.543 2.15 2.778l1.553 2.775h2.525c3.033 0 3.09.251.09.393-1.18.056-2.283.187-2.453.292-.175.108-.238.076-.145-.074.09-.146-.189-.604-.62-1.017-.432-.413-.785-.885-.785-1.048s-.184-.528-.41-.81c-.395-.495-.405-.49-.255.147.1.426-.037.292-.383-.378-.612-1.18-.644-1.305-.277-1.079.156.097.19-.023.085-.298-.152-.395-.211-.37-.426.185-.137.354-.37.905-.518 1.224s-.195.95-.105 1.402c.103.512.066.762-.096.662-.143-.089-.26.024-.26.251 0 .319-.301.413-1.323.413-.736 0-1.323.121-1.323.274 0 .188-.16.188-.512 0-.91-.488-.88-.897-.42 5.721.043.605.169 1.249.28 1.43.14.226.096.262-.142.115q-.345-.211-.157.092c.253.41 1.672.39 1.812-.026.089-.263.192-.264.51-.002.306.253 4.283.345 17.174.4l16.777.07-18.587.064-18.587.064zm4.937-8.003c-.073-.182-.133-.033-.133.33 0 .364.06.513.133.331s.074-.48 0-.661m105.609 12.056c.191-.076.42-.067.507.02.088.089-.068.151-.347.14-.308-.013-.371-.076-.16-.16m6.333-.015c.91-.052 2.398-.052 3.308 0 .91.051.165.094-1.654.094s-2.563-.043-1.654-.094m5.56.009c.329-.064.805-.061 1.058.005s-.016.118-.598.115-.79-.057-.46-.12zm6.082-.01a104 104 0 0 1 5.424 0c1.492.047.271.085-2.712.085s-4.203-.038-2.712-.085m12.568.015c.254-.067.671-.067.926 0 .255.066.046.12-.463.12-.51 0-.718-.054-.463-.12m7.859-.016c4.766-.056 6.524-.162 6.676-.402.114-.18.21-.892.211-1.583.003-1.082-.07-1.257-.525-1.257-.29 0-.529.096-.529.214 0 .21-.525.189-2.91-.114-.655-.083-1.523-.144-1.928-.135-.406.009-.681-.075-.612-.186.068-.111-.404-.358-1.05-.549-.658-.194-1.173-.508-1.173-.714 0-.202-.09-.338-.198-.302-.189.063-.331-.146-.331-.486 0-.086.363.15.806.523.927.78 3.07 1.485 4.514 1.485.614 0 1.653-.345 2.73-.907l1.74-.906v5.517l-6.946-.061-6.945-.061zm6.891-4.432c0-.219-.046-.397-.104-.397s-.172.178-.256.397c-.084.218-.037.397.104.397s.256-.179.256-.397m-10.98-3.197c-.537-1.028-.759-1.812-.728-2.577.03-.777-.03-.984-.205-.706-.15.237-.251.269-.253.08a.62.62 0 0 1 .26-.48c.146-.09.265-.342.265-.56 0-.236-.126-.32-.31-.206-.21.13-.253.045-.132-.27.097-.254.177-.757.177-1.117 0-.363.116-.584.26-.495s.514-.232.822-.712c.31-.48.474-.635.366-.344s-.354.946-.546 1.455c-.441 1.17-.473 4.239-.055 5.214.175.407.54 1.067.812 1.467s.392.728.267.728-.574-.665-1-1.477m-113.159.238c.191-.077.42-.067.507.02s-.068.151-.347.14c-.308-.013-.37-.076-.16-.16m-1.182-.415c-.095-.154-.063-.212.07-.13.435.27 2.833-.321 4.197-1.033 2.685-1.4 2.547-1.09 2.583-5.832l.032-4.184-.775-.167-.774-.167.712-.031c.391-.017.785.088.875.233.436.705.593.02.613-2.676.012-1.618.088-3.007.168-3.087s.145 3.267.145 7.439c0 4.974-.092 7.585-.27 7.585-.158 0-.2-.3-.1-.728.163-.703.155-.71-.251-.198-.231.29-.424.678-.429.86s-.1.3-.211.264c-.112-.036-1.094.372-2.183.907-2.04 1.002-4.094 1.444-4.402.945m7.563-4.895c-.016-.635-.045-.66-.231-.198-.117.29-.162.618-.098.727.224.388.347.19.33-.529m73.176 4.91c-.582-.126-1.356-.47-1.72-.766l-.661-.538.88.43c.484.237 1.377.516 1.984.62.608.104.985.255.84.336-.146.08-.74.043-1.323-.082m3.572-.118c2.51-.536 4.28-1.502 5.803-3.17 2.392-2.616 2.975-6.084 1.625-9.659-.31-.819-.798-1.76-1.085-2.09-.627-.724-.646-.818-.124-.618.285.11.444-.082.564-.678.091-.458.208-.79.26-.738s.576 1.797 1.164 3.878c.979 3.463 1.124 4.778.53 4.778-.123 0-.308.506-.41 1.124-.202 1.209-.757 2.456-1.365 3.064-.208.208-.316.54-.24.737.076.198.053.333-.05.3-.105-.033-.845.432-1.645 1.034-.8.601-1.908 1.332-2.46 1.624-.553.292-.885.572-.738.623.147.05-.591.107-1.64.126l-1.909.033zm8.642-9.686c-.074-.182-.134-.034-.134.33s.06.513.134.331c.073-.182.073-.48 0-.661m-1.34-5.328c-.268-.78-.386-.905-.523-.548-.099.258.01.744.248 1.107.578.883.692.653.275-.56M45.67 239.98c-1.416-.408-.848-.462.889-.085.94.204 1.264.343.793.342-.436 0-1.193-.117-1.682-.257m13.06.017c-1.51-.146-1.474-.156.727-.198 1.273-.025 2.315.052 2.315.172 0 .243-.734.25-3.042.026m37.372.111c.182-.073.48-.073.661 0s.033.133-.33.133c-.364 0-.513-.06-.331-.133m21.95-.142c-.176-.112.682-.206 1.907-.208 1.224-.002 2.177.044 2.116.103-.22.213-3.71.304-4.022.105m37.912-.013c0-.11.982-.181 2.183-.16 2.253.042 1.993.153-.662.283-.837.041-1.522-.014-1.521-.123m-121.113-.129a19 19 0 0 1 2.513 0c.692.055.126.1-1.256.1s-1.948-.045-1.257-.1m34.535 0a13 13 0 0 1 2.117.003c.542.057.032.102-1.132.101s-1.607-.047-.985-.103zm10.319 0a13 13 0 0 1 2.116.003c.542.057.033.102-1.131.101s-1.608-.047-.985-.103zm11.319-.045c-.082-.132.09-.178.381-.102.618.162.696.342.149.342-.21 0-.448-.108-.53-.24m6.732-.025c.218-.14.516-.256.661-.256s.086.115-.132.256c-.219.141-.516.257-.662.257-.145 0-.086-.116.133-.257m11.443.075c.4-.06 1.055-.06 1.455 0s.073.11-.728.11-1.127-.05-.727-.11m37.975-.005a13 13 0 0 1 2.116.002c.542.057.033.103-1.131.102s-1.608-.048-.985-.104zm3.913-2.219c.363-1.365.973-3.595 1.357-4.957l.698-2.475 1.17 4.327c1.567 5.792 1.502 5.504 1.069 4.725-.203-.364-.644-1.793-.98-3.175-.337-1.383-.789-2.654-1.004-2.825-.252-.2-.331-.532-.223-.926.136-.495.116-.53-.105-.18-.151.238-.45 1.194-.666 2.124-.455 1.96-1.558 5.426-1.806 5.674-.093.093.127-.947.49-2.312m9.534 1.708c.243-1.014.37-1.11.37-.28 0 .379-.124.766-.275.86-.18.111-.213-.088-.095-.58m-127.405.11c-.01-.255-.14-.433-.29-.397-.15.037-.473-.259-.72-.656-.367-.593-.386-.783-.103-1.058.28-.274.328-.238.256.193-.051.308.046.503.233.466.186-.036.258.103.17.33-.084.22-.003.394.18.394.259 0 .306-1.156.216-5.225-.063-2.874-.04-5.702.052-6.284s.216 1.834.276 5.37.027 6.63-.072 6.879c-.167.419-.18.418-.198-.012m84.003-.12c-.143-.378-.113-.408.149-.149.18.18.262.393.18.474-.081.082-.23-.065-.329-.326m27.99.126c-.135-.185-.281-.694-.325-1.13a6.5 6.5 0 0 0-.422-1.588c-.473-1.098-.826-2.162-1.21-3.646-.542-2.1-.111-1.67.534.533.33 1.13.892 2.93 1.246 4.001.625 1.884.687 2.528.178 1.83m-106.383-.998c0-.655.051-.923.114-.595.063.327.063.863 0 1.19-.063.328-.114.06-.114-.595m4.822.51c-.436-.28-.948-.452-1.138-.381s-.275.017-.19-.12c.194-.315-.673-1.353-.974-1.167-.124.077-.194.04-.157-.08s-.163-.602-.444-1.072c-.365-.61-.577-.761-.74-.53-.138.197-.157.077-.05-.302.133-.468.093-.576-.156-.422-.212.13-.267.099-.152-.087.215-.348-.068-1.64-.36-1.64-.11 0-.213.55-.226 1.225-.014.674-.089 1.29-.166 1.367-.078.078-.142-2.756-.142-6.297s.072-6.366.16-6.279c.088.088.162 1.566.165 3.286.004 2.047.08 2.867.22 2.375.119-.412.145-.948.058-1.19-.087-.243-.064-.356.05-.253.115.104.405-.194.645-.661.8-1.555 2.51-3.395 3.759-4.04.447-.231.866-.369.93-.305s-.248.267-.693.452c-1.203.498-3.07 2.731-3.718 4.445-1.605 4.25-.435 8.647 2.948 11.077.714.513 1.297.98 1.297 1.04 0 .148-.03.134-.926-.441m13.404.019c0-.364.06-.513.133-.33.073.181.073.479 0 .66-.073.183-.133.034-.133-.33m10.508-1.852c-.018-1.31-.063-2.5-.1-2.646a5 5 0 0 1-.098-.661c-.026-.304-.397-.397-1.588-.397-.855 0-1.912.071-2.349.159l-.795.159-.046 2.677c-.025 1.472-.1 2.73-.164 2.795-.065.066-.118-1.27-.118-2.968v-3.087h5.556v3.175c0 1.746-.06 3.175-.133 3.175-.072 0-.147-1.071-.165-2.381m22.392 2.12c-.092-.15.014-.195.25-.104.458.175.541.365.16.365-.136 0-.32-.118-.41-.261m32.674-2.517c-.105-2.788-.102-3.616.032-8.996l.06-2.381.152 1.72c.137 1.541.19 1.665.504 1.19.247-.373.31-.398.214-.084-.592 1.921-.418 4.183.491 6.371.145.35.093.428-.207.313-.22-.085-.5-.592-.624-1.128-.177-.765-.256-.236-.37 2.466l-.144 3.44zm-44.875-.926c0-1.964.042-2.768.092-1.786.051.983.051 2.59 0 3.572s-.092.179-.092-1.786m5.245.133c-.002-1.892.081-3.738.185-4.101.18-.627.088 6.304-.094 7.143-.048.219-.089-1.15-.091-3.042m-10.004-1.191c0-2.401.04-3.383.09-2.183s.049 3.165 0 4.366c-.05 1.2-.09.218-.09-2.183m15.7 3.946c-.256-.149-.613-.185-.794-.081s-.24.091-.133-.028c.108-.119.049-.4-.132-.626-.256-.32 1.234.415 1.898.936.266.208-.419.044-.84-.2m23.144-3.615c-.032-2.22-.01-4.035.049-4.035.058 0 .354.42.656.932.53.9.532.923.034.657-.497-.266-.519-.154-.599 3.102l-.082 3.379zm14.279 2.833c-.739-.588-1.418-1.304-1.509-1.591-.091-.288-.276-.454-.411-.37-.135.083-.246.032-.246-.113 0-.686.5-.44 1.033.508.324.576.67 1.053.77 1.059.227.013 2.07 1.576 1.86 1.576-.085 0-.758-.481-1.497-1.07m-9.79.143c-.166-.364-.259-.661-.206-.661s.292.297.53.661.33.662.205.662-.364-.298-.53-.662m-85.978-2.558c-.621-1.012-1.064-1.946-.984-2.076s.53-.502.998-.827c.725-.504.788-.516.424-.079-.235.282-.404.776-.376 1.096s-.055.517-.185.436c-.13-.08-.172-.32-.09-.53.082-.215.031-.313-.115-.222-.409.253-.31.773.268 1.392.29.312.529.691.529.841s.238.423.53.604c.533.334.695.865.33 1.085-.11.066-.707-.708-1.329-1.72m130.95 1.765c0-.146.16-.682.355-1.191.197-.51.36-.748.365-.53.005.219-.155.755-.355 1.191s-.364.675-.365.53m-46.492-1.443c-.55-.721-1.117-1.239-1.26-1.15-.144.088-.178.026-.075-.14.102-.164.056-.54-.101-.834-.537-1.003-.05-.538.755.722a34 34 0 0 0 1.368 1.985c.31.4.507.727.438.727-.07 0-.576-.59-1.125-1.31m-26.873-.476c.138-.254.582-.76.987-1.124.681-.611.671-.575-.13.463-.898 1.164-1.291 1.467-.857.661m5.987.333a15 15 0 0 0-1.023-.256c-.418-.093-.7-.228-.628-.3s.689.01 1.37.18c1.922.484 3.236-.32 2.067-1.265-.418-.338-.405-.346.132-.086 1.561.756-.166 2.312-1.918 1.727m-46.434-.417c-.864-.363-1.81-1.258-2.274-2.152-.438-.84-.489-3.044-.095-4.08.318-.837 1.676-2.22 2.168-2.208.183.005.002.255-.402.556-.869.648-1.374 1.57-1.627 2.963-.209 1.152.035 2.637.396 2.414.132-.081.174.025.093.236-.081.21-.002.473.176.583.207.128.256.09.135-.105-.104-.168-.05-.306.12-.306s.245.165.167.367.122.595.443.874c.459.399.976.504 2.427.493 1.768-.013 1.848-.041 1.916-.675l.072-.662-.393.662c-.38.64-.393.643-.402.082-.008-.473-.193-.599-1.002-.683q-.984-.104.68-.148c1.617-.044 1.665-.026 1.492.55-.098.328-.335.761-.527.963-.443.467-2.694.641-3.563.276m54.041-.908c.003-.582.058-.789.12-.46.064.33.062.806-.004 1.058-.066.253-.118-.016-.115-.598zm29.118.409c-1.686-1.029-2.433-3.102-1.826-5.07l.358-1.16-.133 1.484c-.15 1.686.356 3.718.775 3.112.178-.256.203-.191.087.224-.133.473-.034.62.51.756.37.093.6.288.51.434-.1.164.052.197.4.086.355-.113.562-.064.562.132 0 .201.364.275 1.036.211.57-.054.98-.007.91.105-.249.403-2.353.195-3.189-.314m3.624.161c0-.04.377-.424.837-.851.835-.776.836-.776.33-.06-.421.596-1.167 1.179-1.167.911m27.781-.048c0-.094.261-1.069.58-2.166.43-1.48.63-1.868.775-1.499.27.686.272 1.1.004.678-.144-.227-.338.21-.563 1.265-.188.887-.444 1.676-.569 1.753s-.226.063-.226-.031zm-55.475-1.845c0-1.018.049-1.403.106-.854.057.55.056 1.383-.002 1.852s-.105.02-.104-.998zm-13.58.087c-.51-.252-1.106-.398-1.324-.324-.268.092-.31.05-.13-.134.182-.183.82-.064 1.985.37.944.35 1.42.617 1.056.593s-1.079-.252-1.588-.505m43.097-.29c.407-.52.268-3.159-.196-3.718-.246-.296-.299-.452-.308-.907-.002-.11-.133-.02-.29.198-.242.337-.263.328-.14-.058.147-.455-.217-.915-.426-.539-.061.11-.075.051-.031-.13.044-.183-.035-.331-.176-.331s-.256-.124-.256-.274c0-.573 1.055.306 1.712 1.426.836 1.428.95 3.855.206 4.438-.42.33-.43.32-.095-.105m-88.21-1.252c0-.728.09-1.323.2-1.323.108 0 .198.595.198 1.323s-.09 1.323-.199 1.323-.198-.595-.198-1.323m-16.374.378c-.088-.23-.039-.643.11-.92.478-.893.74-2.997.536-4.3-.144-.922-.12-1.19.092-.979.163.163.304 1.333.32 2.666.016 1.306-.033 2.313-.109 2.238-.253-.254-.848.868-.686 1.292.089.23.101.419.029.419s-.204-.187-.292-.416m132.79-1.106c-.165-1.3-.228-1.429-.433-.887-.44 1.17-.442.44-.002-1.295.395-1.557.444-1.633.515-.794.044.51.17 1.73.283 2.712s.12 1.786.018 1.786-.274-.685-.38-1.522zm-86.679-.793c-.016-1.128-.009-2.309.016-2.624.028-.356-.136-.62-.434-.697-.38-.098-.356-.13.117-.154.581-.03.595.033.595 2.747 0 1.528-.06 2.778-.132 2.778s-.146-.923-.162-2.05m79.634-1.009c-.383-1.519-.591-2.762-.463-2.762s.233.209.233.463c0 .796.97 3.07 1.17 2.746.103-.167.112-.54.02-.83-.096-.301-.046-.527.115-.527.156 0 .283-.2.283-.444 0-.419.155-.99.777-2.863.238-.717.248-.692.101.265-.09.582-.472 2.33-.851 3.886l-.689 2.828zm-9.282 1.207c-.858-3.01-1.579-6.336-1.446-6.668.076-.189.147-.091.159.217.011.309.264 1.32.56 2.25.298.928.583 1.866.635 2.084.36 1.51.76 2.006 1.017 1.257.128-.373-.017.334-.313 1.522-.191.769-.21.748-.612-.662m-47.574.655c-.28-.336-.263-.375.1-.236.24.092.435.273.435.403 0 .34-.154.293-.535-.167m16.576-.828c-.254-.532-.362-1.038-.24-1.125.121-.086.358-.455.526-.819.267-.579.308-.438.323 1.125.01.982-.02 1.786-.065 1.786-.046 0-.29-.435-.544-.967m-28.565.261a.73.73 0 0 1-.176-.45c0-.165.123-.15.313.04.172.172.251.375.176.45s-.216.057-.313-.04m-65.264-2.205v-1.915l1.623.117c1.782.129 2.346.561 2.346 1.798s-.564 1.67-2.346 1.799l-1.623.117zm2.249 1.323c.09-.145-.089-.264-.397-.264s-.487.119-.397.264.269.265.397.265c.129 0 .307-.12.397-.265m-1.19-.264c0-.146-.053-.265-.117-.265s-.19.12-.28.265-.038.264.116.264.28-.119.28-.264m1.918-.728c-.037-.182.053-.33.198-.33s.265.138.265.308.078.23.174.134c.097-.096-.041-.414-.305-.706-.369-.407-.394-.533-.109-.541.205-.006.04-.191-.367-.411-1.17-.634-1.878-.4-2.076.686-.105.577-.055 1.002.133 1.128.483.323 2.162.108 2.087-.268m46.831.595c.003-.582.058-.789.12-.46.064.33.062.806-.004 1.059s-.118-.016-.115-.599zm25.863.662c-.239-.154-.271-.258-.082-.26a.62.62 0 0 1 .479.26c.203.328.111.328-.397 0m-1.455-.53q-.525-.226-.133-.241c.219-.008.576.1.794.242.484.312.066.312-.661 0m-47.83-.455c.47-.058 1.304-.06 1.852-.002.55.057.165.105-.854.106s-1.467-.045-.998-.104zm46.375-.073c-.239-.155-.272-.259-.082-.261a.62.62 0 0 1 .478.26c.203.33.112.33-.397 0m19.378-1.094c-.474-.708-.75-1.288-.613-1.288s.315.209.396.463c.081.255.445.784.81 1.177.363.392.573.763.465.824s-.584-.468-1.058-1.176m14.125.883c-.208-.337 1.017-1.648 1.526-1.633.16.005-.019.282-.398.617-.38.335-.745.772-.812.97-.09.272-.17.283-.316.046m19.678.006c0-.262.623-3.068.983-4.426.077-.29.155-.796.174-1.121.018-.326.19-.653.381-.726q.35-.134.208.327c-.078.254-.454 1.712-.837 3.24-.656 2.623-.91 3.376-.91 2.706m-86.784-2.75c0-3.228.205-3.384.284-.217.032 1.288.181 2.328.35 2.44.35.232 3.226.26 4.052.038.528-.141.594-.354.675-2.179l.09-2.022.052 2.315.054 2.315H62.3zm20.945 1.83-.042-.992 1.389.047 1.389.048-1.241.099c-1.173.093-1.247.145-1.347.944-.102.816-.107.81-.148-.146m4.323.595c.09-.145.216-.264.28-.264s.117.119.117.264-.126.265-.28.265-.207-.12-.117-.265m-40.878-.264c0-.146.126-.265.28-.265s.207.12.117.265-.216.264-.28.264-.117-.119-.117-.264m4.993-.199c-.315-.402-.31-.424.034-.168.218.163.576.362.794.442.332.123.326.15-.034.168-.237.012-.594-.187-.794-.442m41.829-.02c-.502-.407-.547-.565-.281-.993.297-.478.306-.473.158.072-.123.449.01.67.582.981.408.221.605.407.44.413-.166.006-.57-.207-.9-.473m-40.472-.295c0-.137.118-.322.262-.41.15-.093.194.013.104.248-.176.459-.366.543-.366.162m70.654-.198c-.006-.32.117-.659.272-.755s.217-.347.136-.558-.038-.316.096-.234c.134.083.408-.085.61-.373s.716-.787 1.143-1.108c.642-.484.606-.405-.21.457-.54.572-1.22 1.515-1.51 2.095-.404.811-.529.921-.537.476m-73.564-.236c-.413-.23-.506-.369-.25-.371.227-.002.644.17.927.384.642.486.207.477-.677-.013m22.775-1.897c-.013-1.469.085-2.447.243-2.447.153 0 .265.832.265 1.966 0 1.828.042 1.974.595 2.08.526.102.513.12-.11.151-.388.02-.766.185-.839.367s-.143-.77-.154-2.117m-24.942 1.606c.191-.077.42-.067.507.02s-.068.15-.347.14c-.308-.013-.37-.076-.16-.16m39.722-1.362c.064-.825.165-1.207.224-.847l.108.653.39-.653c.393-.661.371-.57-.296 1.26-.475 1.3-.553 1.224-.426-.413m6.432.83c.254-.066.67-.066.926 0 .254.067.046.122-.463.122-.51 0-.718-.055-.463-.121m-60.866-1.801c0-1.628.032-1.751.269-1.015.182.567.182 1.164 0 1.852-.253.956-.27.907-.27-.837m21.377 1.519c0-.11.267-.366.595-.567.593-.364.593-.364.091.2-.54.607-.686.686-.686.367m101.784.002c-.27-.482-.471-1.77-.237-1.522.274.291.665 1.72.47 1.72-.067 0-.172-.09-.233-.198m-124.803-.771c0-.146-.43-.695-.955-1.22-1.484-1.483-2.728-1.779-7.493-1.779h-4.12l-.011-4.514c-.011-4.42 0-4.512.529-4.37.297.08 1.671.17 3.054.201l2.513.055-2.778.147-2.778.147-.074 3.105c-.041 1.709.025 3.495.148 3.97l.223.862 4.085.155c3.51.133 4.55.235 5.275.518a.8.8 0 0 0 .331.02c.11-.017.199.088.199.233s.178.265.397.265c.218 0 .396-.14.396-.309 0-.17.077-.232.17-.139.094.094.02.352-.164.574-.274.33-.265.403.05.403.211 0 .543.296.736.658.295.55.421.605.773.33.378-.294.381-.274.032.203-.214.29-.422.578-.463.639-.042.06-.075-.009-.075-.154m23.019-1.28c-.342-.363-.496-.66-.342-.66.155 0 .476.297.714.66.238.365.392.662.341.662s-.372-.297-.713-.661m84.005-.181-.53-.548.596.308c.327.17.595.423.595.564 0 .337-.042.317-.661-.324m17.25.116c-.276-.491-.45-1.685-.226-1.547.135.083.298.51.362.948.116.794.075.976-.136.599m3.805-.22c.013-.309.075-.372.16-.16.076.19.067.419-.021.507-.088.087-.15-.069-.139-.348m-22.394-.787c-.493-.395-.49-.4.082-.123.327.159.595.344.595.411 0 .203-.137.144-.677-.288m8.808-.097c-.115-.44-.08-.543.116-.347.154.154.227.436.164.627-.066.198-.186.078-.28-.28m-93.327-.153c-.383-.22-.494-.379-.264-.38.218 0 .628.175.91.388.654.495.224.489-.646-.008zm107.036.15c-.084-.135-.032-.32.116-.412s.27.02.27.246c0 .465-.16.533-.386.166m-124.998-.664c.2-.2 2.597-.256 2.788-.064.1.1-.513.181-1.362.181s-1.49-.053-1.426-.117m24.516-.075c.475-.059 1.19-.057 1.587.003.398.06.008.109-.865.107s-1.198-.05-.722-.11zm83.62.011c.19-.076.419-.067.507.021s-.069.15-.347.14c-.309-.014-.371-.076-.16-.16m1.058 0c.191-.076.42-.067.507.021s-.068.15-.347.14c-.308-.014-.371-.076-.16-.16m8.467 0c.19-.076.419-.067.507.021s-.069.15-.347.14c-.309-.014-.371-.076-.16-.16m8.852-.003c.257-.067.614-.062.794.01.179.073-.032.128-.469.122-.436-.005-.583-.064-.325-.132zm2.183-1.073a76 76 0 0 0-.285-2.042c-.076-.468-.032-.682.108-.53.234.254.646 3.829.442 3.829-.058 0-.177-.566-.265-1.257m-115.827.552c.182-.073.48-.073.662 0 .182.074.033.134-.331.134s-.513-.06-.33-.134m115.47-4.367c-.024-.533-.122-1.188-.217-1.455-.13-.37-.095-.415.15-.19.192.177.279.76.217 1.456-.097 1.095-.105 1.106-.15.19m-.27-3.858c-.022-.327-.183-.595-.357-.595-.245 0-.246-.072-.004-.313.438-.438.646-.133.513.752-.086.58-.121.615-.152.156zM18.91 208.27c0-.485.137-.794.353-.794.418 0 .482.785.066.814-.158.01.13.18.639.377l.926.356-.992.02c-.93.02-.992-.029-.992-.773m3.373.618c.182-.073.48-.073.662 0 .182.074.033.134-.331.134s-.513-.06-.33-.134m3.969 0c.182-.073.48-.073.661 0 .182.074.034.134-.33.134s-.513-.06-.331-.134m2.646 0c.182-.073.48-.073.661 0 .182.074.033.134-.33.134-.364 0-.513-.06-.331-.134m1.143-.155c.01-.182.12-.57.246-.86.19-.444.23-.39.246.33.01.473-.1.86-.246.86s-.256-.148-.246-.33m37.288.23c0-.054.178-.248.396-.429.325-.27.397-.251.397.1 0 .236-.178.43-.397.43-.218 0-.396-.046-.396-.1m6.614-.18c0-.154.12-.206.265-.116s.264.216.264.28-.119.116-.264.116-.265-.126-.265-.28m10.727.034c-.084-.135-.031-.321.117-.412.148-.092.269.019.269.246 0 .465-.16.533-.386.166m17.054.142c0-.057.179-.172.397-.256s.397-.037.397.104-.178.256-.397.256c-.218 0-.397-.046-.397-.104m18.472-.076c.19-.077.419-.067.507.02s-.069.151-.348.14c-.308-.013-.37-.076-.16-.16m35.26-.18c.061-.051.587-.167 1.17-.256.72-.11.931-.082.66.09-.36.231-2.086.388-1.83.167m-36.148-.451c-.096-.155-.117-.339-.048-.408.07-.07.197.057.283.282.179.466.026.548-.235.126m38.57.133c.205-.206 3.429-.946 3.558-.817.057.057-.67.297-1.614.535-1.857.466-2.175.512-1.945.282m-21.902-10.17c0-5.602.035-7.894.078-5.093s.043 7.385 0 10.187-.078.509-.078-5.094m25.976 8.988c.3-.3 3.008-1.38 3.008-1.2 0 .12-2.873 1.473-3.128 1.473-.084 0-.03-.123.12-.273m-143.038-7.598c.003-4.957.092-7.469.258-7.21.317.496.284 14.816-.034 14.816-.126 0-.226-3.423-.224-7.606m11.465 5.49c0-1.237.046-1.743.102-1.125s.055 1.63 0 2.25c-.056.618-.102.112-.102-1.125m87.22.793c-.31-.436-.467-.793-.348-.792s.419.358.667.794c.58 1.02.408 1.018-.319-.002zm48.746-.871c.252-.204.371-.468.264-.586s-.045-.13.137-.025c.457.264.42.362-.265.694-.534.259-.548.25-.136-.083m-98.395-2.039c0-1.237.046-1.743.101-1.124.056.618.056 1.63 0 2.248-.055.619-.1.113-.1-1.124m99.643.816c.161-.3.39-.518.51-.483.372.11 3.214-3.043 3.142-3.485-.037-.231.073-.393.246-.36.172.034.648-.648 1.058-1.514.41-.867.836-1.579.948-1.582.24-.008-.952 2.404-1.756 3.55-.792 1.13-3.378 3.849-3.957 4.16-.428.231-.45.199-.19-.286m-127.775-1.928c-.561-.923-.527-1.16.133-.906.271.104.37.341.272.651-.108.34.028.577.444.778.48.231.507.292.133.306-.257.01-.699-.363-.982-.83m3.632.654c.618-.056 1.63-.056 2.249 0 .618.055.112.101-1.125.101s-1.743-.046-1.124-.101m71.388-.523c-.143-.377-.113-.407.148-.148.181.18.262.393.181.475s-.23-.066-.329-.327m-68.461.006c.19-.076.419-.067.507.021s-.068.15-.347.14c-.309-.014-.371-.076-.16-.16m.589-.48c0-.146.245-.563.542-.927q.54-.659.268-.132c-.446.863-.812 1.342-.81 1.058m83.185-7.277c0-4.001.037-5.639.082-3.638.044 2.001.044 5.276 0 7.276-.045 2.001-.082.364-.082-3.638m-91.814 4.723c-.394-.778-.894-1.685-1.11-2.015-.352-.538-.35-.583.025-.44.23.088.556.58.726 1.095.236.714.37.849.567.572.197-.276.221-.249.104.114-.085.262.04.772.276 1.133.236.36.362.723.279.806s-.473-.486-.867-1.265m111.74-.411a3.8 3.8 0 0 1 1.19 0c.328.063.06.114-.595.114s-.922-.051-.595-.114m3.985-.259c.191-.076.42-.067.507.02.088.089-.068.151-.347.14-.308-.013-.37-.075-.16-.16m-105.244-.216c0-.146.245-.562.542-.926q.54-.66.268-.132c-.446.863-.812 1.341-.81 1.058m106.75-.043c1.18-.255 2.717-1.033 3.968-2.01l1.323-1.033-1.18 1.098c-1.299 1.21-3.087 2.137-4.031 2.09-.53-.027-.541-.046-.081-.145m-43.795-.493c-.184-.222-.283-.454-.22-.517.062-.062.259.119.436.403.384.616.256.683-.216.114m-75.136-1.644c0-.155-.42-1.026-.934-1.934-.513-.909-.746-1.496-.516-1.306.525.436 1.823 3.15 1.61 3.364-.088.088-.16.032-.16-.124m137.074-.334c-.001-.381.745-1.896.764-1.551.005.092-.164.568-.377 1.058-.212.49-.387.712-.387.493m-123.412-.206c-.09-.145.015-.41.231-.59.43-.357.52-.077.159.494-.138.218-.291.256-.39.096m-19.917-3.233c0-1.383.045-1.948.1-1.257.054.691.054 1.822 0 2.514-.055.69-.1.125-.1-1.257m78.544 1.257c-1.1-1.624-1.178-1.786-.867-1.786.154 0 .28.137.28.306s.276.674.614 1.124c.784 1.045 1.04 1.48.87 1.48-.075 0-.478-.506-.897-1.124m52.814.189c.29-.442.784-1.514 1.096-2.382.344-.96.5-1.215.395-.651-.094.509-.19 1.101-.213 1.316-.043.396-.233.68-1.242 1.859-.691.826-.557.647-.036-.142m12.762-.072c-.01-.19.106-.845.256-1.455s.372-2.598.492-4.417c.164-2.498.226-2.854.253-1.455.042 2.148-.377 6.158-.737 7.055-.136.34-.255.462-.264.272m-122.784-.83c0-.136.118-.32.262-.41.15-.092.194.014.104.25-.176.458-.366.541-.366.16m-17.588-1.59c-.46-.89-.508-1.166-.165-.954.252.155.872 1.735.68 1.735-.06 0-.293-.35-.515-.78m18.382.252c.156-.29.343-.529.415-.529.073 0 .005.238-.15.53-.156.29-.343.528-.416.528s-.005-.238.15-.529m-33.598-.463c-.002-.473.115-.86.26-.86.336 0 .336.803 0 1.323-.194.301-.257.19-.26-.463m14.142-1.984-.42-.86.54.662c.519.636.688 1.058.425 1.058-.07 0-.314-.387-.545-.86m130.337.176c.013-.308.076-.37.16-.16.076.191.067.42-.02.508-.089.087-.151-.069-.14-.348M43.545 175.781c-.199-.373-.15-.482.226-.51.35-.027.443.1.346.474-.165.631-.25.636-.572.036m-.78-1.522c-.443-.973-.358-1.18.12-.296.225.413.358.8.298.861s-.249-.193-.418-.565m128.17-1.915-.509-.72.707.642c.742.674.833.82.507.806-.109-.005-.427-.332-.706-.728m-1.497-1.844-.642-.727.728.641c.4.353.727.68.727.728 0 .207-.214.038-.813-.642m-128.823-.577c-.417-.78-.86-2.016-.646-1.801.253.253 1.17 2.312 1.03 2.312-.06 0-.233-.23-.384-.511m126.878-1.214c-.28-.212-.449-.447-.374-.523.076-.075.353.103.617.395.563.621.472.669-.243.128m-128.089-1.203c-.096-.155-.118-.339-.048-.408.07-.07.196.058.283.282.178.466.026.548-.235.126m124.91-.917c-.283-.213-.395-.388-.25-.388s.497.175.779.388.395.389.249.389c-.145 0-.496-.175-.778-.389m-125.783-.797c-.189-.416-.288-1.913-.259-3.903l.048-3.229.166 3.44c.09 1.892.26 3.648.377 3.902.116.255.159.463.094.463s-.257-.303-.426-.673m-19.6-.804c.012-.308.075-.37.16-.16.076.191.066.42-.021.507s-.15-.068-.14-.347m27.303-1.168c0-.655.051-.923.115-.596.063.328.063.864 0 1.191-.064.327-.115.06-.115-.595m-27.324.264c0-.145.126-.264.28-.264s.207.119.117.264-.216.265-.28.265-.117-.12-.117-.265m11.774 0c-.432-.185-.447-.23-.082-.246.246-.01.52.1.61.246.189.304.18.304-.528 0m-10.517-.175c.181-.073.48-.073.661 0s.033.133-.33.133c-.365 0-.513-.06-.331-.133M19.01 152.53c.09-3.59.23-6.592.309-6.671.08-.08.132 2.649.117 6.063-.015 3.415-.02 6.328-.012 6.474.018.305 6.019.542 6.871.271.54-.171.553-.317.54-6.01-.007-3.209.052-5.9.131-5.979.08-.08.145 2.673.145 6.117v6.262h-8.265zm104.806 6.263c.09-.146.283-.265.428-.265s.191.12.101.265-.282.264-.428.264c-.145 0-.19-.119-.101-.264m14.42 0c0-.146.112-.265.249-.265s.322.12.412.265-.022.264-.249.264-.412-.119-.412-.264m7.82-.666c-.226-.542-.412-1.158-.412-1.367s-.118-.307-.261-.218-.2 0-.125-.195c.075-.196-.047-.875-.27-1.51-.225-.635-.366-1.196-.314-1.248.051-.051.539 1.108 1.084 2.577.544 1.468.927 2.732.85 2.809-.076.077-.325-.305-.551-.848m8.822.565c.213-.257.297-2.618.283-7.967-.011-4.181.046-7.668.126-7.75.08-.08.147 3.506.147 7.968 0 7.308-.043 8.114-.43 8.114-.334 0-.362-.08-.126-.365m12.485-.745c-.986-1.34-1.003-1.49-.169-1.442.41.025.556.131.397.29-.331.332-.323.75.01.544.144-.089.205-.007.136.183-.332.902.319 1.137 3.363 1.213 1.643.04 3.145-.032 3.339-.161.28-.187.35-1.796.345-7.814-.004-4.597.091-7.578.243-7.578s.25 3.12.25 7.938v7.937h-7.098zm-121.181.427c.012-.309.075-.371.16-.16.076.19.067.419-.021.507s-.15-.068-.14-.347m13.015.235c.257-.067.614-.062.793.01.18.073-.031.128-.468.122-.436-.005-.583-.065-.325-.132zm-20.902-1.14c0-.654.052-.922.115-.595s.063.864 0 1.191-.115.06-.115-.595m18.383.247c-.546-.288-.992-.583-.992-.655s.476.112 1.058.409 1.059.597 1.059.666c0 .174-.003.173-1.125-.42m14.733-.483c.099-.16.425-.421.726-.582.391-.21.495-.21.367-.003-.098.16-.425.421-.725.582-.392.21-.496.21-.368.003m66.182-.708c-.097-.388-.126-.756-.063-.819.062-.062.193.204.29.592s.126.756.064.818c-.063.063-.193-.204-.29-.591zm-21.045.283c0-.145.116-.443.257-.661.14-.219.256-.278.256-.133s-.115.444-.256.662-.257.278-.257.132m-70.345-.926c0-.364.06-.512.133-.33.073.181.073.479 0 .66-.073.183-.133.034-.133-.33m8.281.247c-.271-.44-.027-.5.352-.088.188.204.225.37.082.37-.142 0-.338-.127-.434-.282m18.4.197c0-.082.432-.603.96-1.157.84-.88.89-.904.41-.19-.556.825-1.37 1.625-1.37 1.347m92.85-.536c-1.582-2.164-3.45-4.994-3.359-5.085.06-.06.756.831 1.545 1.983.79 1.15 1.487 2.04 1.55 1.977s.274.263.467.724c.428 1.018.354 1.164-.204.401m-127.406-3.215c0-2.037.042-2.836.092-1.775.05 1.062.05 2.729 0 3.705s-.093.107-.092-1.93m109.01-.53c.001-2.328.042-3.245.09-2.037.05 1.207.05 3.112 0 4.233s-.09.133-.09-2.195m-22.309 3.308c-.008-.218.101-.575.242-.794.313-.483.313-.066 0 .662q-.226.524-.242.132m-71.986-.788c-.22-.41-.202-.493.08-.385a.6.6 0 0 1 .358.523c0 .518-.104.485-.438-.138m62.216-.006c0-.364.06-.512.133-.33.074.181.074.479 0 .66-.073.183-.133.034-.133-.33m3.128-2.764c.55-1.55 1.093-2.901 1.207-3.003.113-.102.112.052-.002.343-.115.291-.534 1.519-.931 2.728-.397 1.208-.847 2.322-.998 2.473-.152.152.174-.992.724-2.541zm-66.25 1.536c-.14-.363-.101-.38.235-.1.46.381.507.534.167.534-.13 0-.311-.195-.403-.434m43.11-.346c-.221-.43-.403-.873-.403-.985 0-.27.66.713.874 1.302.267.737-.028.537-.47-.317m-19.65-.212c.593-1.346.988-2.052.99-1.77.001.347-1.024 2.498-1.19 2.498-.067 0 .024-.328.2-.728m68.65.282c-.07-.118-.201-.632-.29-1.142l-.163-.926.397 1.036c.353.921.39 1.598.056 1.032m-42.904-.425c.1-.261.248-.408.33-.327.08.082 0 .295-.181.475-.262.26-.292.229-.149-.148m-49.985-1.05c-.615-1.611-.514-1.918.118-.36.288.711.478 1.339.42 1.396-.056.056-.298-.41-.538-1.036m63.963-2.312c0-1.965.041-2.769.092-1.786.051.982.051 2.59 0 3.571-.05.983-.092.18-.092-1.785m16.11 2.98a17 17 0 0 1 2.381.002c.614.055.045.1-1.265.1-1.31-.002-1.812-.047-1.116-.102zm3.966.011c.257-.067.614-.062.793.01.18.073-.031.128-.468.122-.436-.005-.583-.064-.325-.132zm-68.94-.865c.467-.285 1.168-1 1.557-1.587.898-1.358 1.1-1.386.329-.046-.553.96-1.933 2.154-2.487 2.151-.137 0 .134-.234.601-.518m-5.857-.16c-.63-.63-.498-.794.18-.224.326.275.644.532.705.57s-.02.069-.18.069-.477-.187-.705-.416m42.013-.974c.73-1.708 1.05-2.315 1.223-2.315.096 0-.168.714-.587 1.587-.801 1.67-1.266 2.2-.636.728m-8.97-.216c-.096-.155-.118-.34-.049-.409.07-.069.197.058.283.283.179.466.027.548-.234.126m67.064-1.496a74 74 0 0 0-2.448-3.506c-.956-1.273-1.08-1.521-.467-.944.457.431 1.405 1.65 2.106 2.708.702 1.058 1.36 1.84 1.463 1.738s.108.018.012.269c-.096.25-.057.455.087.455s.324.238.4.529c.076.29.107.529.068.529s-.588-.8-1.22-1.778m-114.454-.603c0-1.237.046-1.743.102-1.125s.055 1.63 0 2.25c-.056.618-.102.112-.102-1.125m42.822 1.455c.005-.437.065-.583.132-.326.067.258.062.615-.01.794-.073.18-.128-.032-.122-.468zm53.836-.199a48 48 0 0 0-.305-1.52c-.081-.365.017-.246.217.264.627 1.592.749 2.116.492 2.116-.136 0-.318-.387-.404-.86m-92.385-.198c-.1-.457-.127-.887-.06-.954.068-.068.199.258.292.722.22 1.103.007 1.317-.232.232m26.612-.683c.013-.309.075-.371.16-.16.076.19.067.419-.021.507s-.15-.069-.139-.347m-38.873-.64c0-.364.06-.513.134-.33.073.181.073.479 0 .66-.074.183-.134.034-.134-.33m53.833-.877c-.722-1.25-.987-2.033-.687-2.033.142 0 .258.171.258.381s.253.81.562 1.335.515.999.458 1.056-.323-.275-.59-.739m11.92.48c.1-.29.262-.588.362-.661s.44-.639.753-1.257.629-1.124.701-1.124c.18 0-1.057 2.386-1.577 3.042l-.418.53zm-53.78-.232c-.077-.2-.1-.944-.053-1.653l.087-1.29.127 1.654c.129 1.672.094 1.953-.161 1.29m97.083-1.488c0-1.091.046-1.537.103-.992.058.546.058 1.439 0 1.985-.057.545-.103.099-.103-.993m-69.898 1.059c0-.364.06-.513.134-.331.073.182.073.48 0 .661-.074.182-.134.034-.134-.33m-49.783-.199c0-.109 2.263-.198 5.027-.198s5.027.09 5.027.198c0 .11-2.262.199-5.027.199s-5.027-.09-5.027-.199m79.925-.22c.013-.308.075-.371.16-.16.076.191.067.42-.021.507s-.15-.068-.139-.347m34.118-.752c-.415-1.09-.282-1.465.16-.452.213.49.326.953.25 1.029s-.26-.184-.41-.577m-13.48-.306c.012-.309.075-.371.16-.16.076.19.066.419-.021.507s-.15-.069-.14-.347m5.754-.375c-.083-.364-.233-.9-.334-1.19-.1-.292.01-.196.247.213.236.408.387.944.334 1.19-.068.32-.139.258-.247-.213m-26.361-.397c.005-.437.064-.583.132-.326.067.258.062.615-.01.794-.073.179-.128-.032-.122-.468zm58.543-.944c-.096-.155-.118-.339-.049-.408.07-.07.197.057.283.282.179.466.026.548-.234.126m-4.389-6.266c-.33-.42-.32-.43.1-.1.255.2.463.408.463.463 0 .218-.217.078-.563-.363m-142.79-1.257c.005-.436.065-.583.132-.326.067.258.063.615-.01.794-.072.18-.127-.031-.122-.468zm156.12-2.117c.003-.582.057-.789.12-.46.063.33.061.806-.005 1.059s-.118-.016-.115-.599zm-156.13-.132c0-.364.06-.512.134-.33.073.181.073.479 0 .66-.073.183-.133.034-.133-.33m148.457-1.72c.003-.582.057-.789.12-.46.063.33.061.806-.005 1.059s-.118-.017-.115-.599zM18.91 129.203v-2.16l1.124.04c.79.027.908.072.397.149-.912.138-1.156.622-1.238 2.456-.1 2.245-.283 1.93-.283-.485m156.183-1.631c0-.8.05-1.128.11-.728.061.4.061 1.055 0 1.455-.06.4-.11.073-.11-.727m-148.246.148c0-.245-.353-.418-.992-.485l-.992-.103 1.124-.045c.963-.038 1.125.032 1.125.485 0 .29-.06.529-.132.529s-.133-.172-.133-.381m11.377-.421c0-.141.179-.256.397-.256s.397.046.397.104-.179.172-.397.256-.397.037-.397-.104m7.806.008c-.09-.146-.038-.265.116-.265s.28.12.28.265-.052.264-.116.264-.19-.119-.28-.264m121.383-1.588c0-.654.052-.922.115-.595s.063.863 0 1.19c-.063.328-.115.06-.115-.595m7.673-2.116c0-.655.052-.923.115-.596s.063.864 0 1.191-.115.06-.115-.595m-7.724-.684c.013-.308.075-.37.16-.16.076.191.067.42-.021.507s-.15-.068-.14-.347m0-1.852c.013-.308.075-.37.16-.16.076.191.067.42-.021.507s-.15-.068-.14-.347m.051-1.698c0-.654.052-.922.115-.595s.063.863 0 1.19c-.063.328-.115.06-.115-.595m7.537-6.416c-.036-4.11-.054-8.159-.041-8.996s-.023-1.521-.08-1.521c-.058 0-.262.372-.453.827s-.403.723-.47.596c-.068-.128.21-.828.618-1.555l.742-1.323.006 9.723c.003 5.348-.053 9.724-.126 9.724s-.161-3.364-.197-7.475zm-7.477 1.92c.225-.437.782-1.419 1.236-2.183.455-.765 1.182-2.045 1.617-2.846.435-.8.893-1.568 1.02-1.706.375-.413.268.21-.136.788-.87 1.242-1.484 2.562-1.32 2.828.098.159.067.22-.069.136s-.765.73-1.399 1.811c-1.15 1.961-1.725 2.671-.95 1.171m5.069-8.865c.366-.655.713-1.19.771-1.19s-.154.535-.472 1.19-.665 1.19-.772 1.19.107-.535.473-1.19" style="fill:#002663;fill-opacity:1;stroke-width:.26458341" transform="translate(-18.568 -100.585)"/></svg>